ISO-10303-21;
HEADER;
FILE_DESCRIPTION (( 'STEP AP214' ),
    '1' );
FILE_NAME ('XAL6060-153MEC.STEP',
    '2024-09-17T16:50:57',
    ( '' ),
    ( '' ),
    'SwSTEP 2.0',
    'SolidWorks 2024',
    '' );
FILE_SCHEMA (( 'AUTOMOTIVE_DESIGN' ));
ENDSEC;

DATA;
#1 = SURFACE_STYLE_FILL_AREA ( #580 ) ;
#2 = UNCERTAINTY_MEASURE_WITH_UNIT (LENGTH_MEASURE( 1.000000000000000082E-05 ), #491, 'distance_accuracy_value', 'NONE');
#3 = DIRECTION ( 'NONE',  ( 0.000000000000000000, -1.000000000000000000, -0.000000000000000000 ) ) ;
#4 = EDGE_LOOP ( 'NONE', ( #326, #159, #360, #740 ) ) ;
#5 = DIRECTION ( 'NONE',  ( 1.283079494065685941E-16, 0.000000000000000000, 1.000000000000000000 ) ) ;
#6 = STYLED_ITEM ( 'NONE', ( #379 ), #104 ) ;
#7 = SURFACE_SIDE_STYLE ('',( #851 ) ) ;
#8 = COLOUR_RGB ( '',0.8274509803921568096, 0.8392156862745098200, 0.8274509803921568096 ) ;
#9 = DIRECTION ( 'NONE',  ( 0.000000000000000000, 0.000000000000000000, 1.000000000000000000 ) ) ;
#10 = COLOUR_RGB ( '',0.1882352941176470562, 0.2039215686274509776, 0.2039215686274509776 ) ;
#11 = STYLED_ITEM ( 'NONE', ( #111 ), #918 ) ;
#12 = ORIENTED_EDGE ( 'NONE', *, *, #592, .T. ) ;
#13 = CARTESIAN_POINT ( 'NONE',  ( 3.279999999999999805, 0.000000000000000000, -3.129999999999999005 ) ) ;
#14 = DIRECTION ( 'NONE',  ( 1.385561881770613175E-16, 0.000000000000000000, 1.000000000000000000 ) ) ;
#15 = CARTESIAN_POINT ( 'NONE',  ( -2.644999999999999130, -0.1000000000000000056, -2.500000000000000444 ) ) ;
#16 = VERTEX_POINT ( 'NONE', #191 ) ;
#17 = FILL_AREA_STYLE_COLOUR ( '', #383 ) ;
#18 = ORIENTED_EDGE ( 'NONE', *, *, #613, .T. ) ;
#19 = FILL_AREA_STYLE ('',( #398 ) ) ;
#20 = DIRECTION ( 'NONE',  ( -1.000000000000000000, 0.000000000000000000, -0.000000000000000000 ) ) ;
#21 =( GEOMETRIC_REPRESENTATION_CONTEXT ( 3 ) GLOBAL_UNCERTAINTY_ASSIGNED_CONTEXT ( ( #84 ) ) GLOBAL_UNIT_ASSIGNED_CONTEXT ( ( #327, #807, #393 ) ) REPRESENTATION_CONTEXT ( 'NONE', 'WORKASPACE' ) );
#22 =( NAMED_UNIT ( * ) SI_UNIT ( $, .STERADIAN. ) SOLID_ANGLE_UNIT ( ) );
#23 = ORIENTED_EDGE ( 'NONE', *, *, #765, .F. ) ;
#24 = VECTOR ( 'NONE', #624, 1000.000000000000000 ) ;
#25 =( LENGTH_UNIT ( ) NAMED_UNIT ( * ) SI_UNIT ( .MILLI., .METRE. ) );
#26 = CARTESIAN_POINT ( 'NONE',  ( 3.030000000000000693, 6.000000000000000000, 3.129999999999999893 ) ) ;
#27 = EDGE_CURVE ( 'NONE', #799, #621, #335, .T. ) ;
#28 = FACE_OUTER_BOUND ( 'NONE', #865, .T. ) ;
#29 = EDGE_CURVE ( 'NONE', #60, #672, #35, .T. ) ;
#30 = VERTEX_POINT ( 'NONE', #645 ) ;
#31 = PRODUCT_RELATED_PRODUCT_CATEGORY ( 'part', '', ( #553 ) ) ;
#32 = APPLICATION_CONTEXT ( 'automotive_design' ) ;
#33 = SURFACE_SIDE_STYLE ('',( #811 ) ) ;
#34 = SURFACE_STYLE_FILL_AREA ( #330 ) ;
#35 = LINE ( 'NONE', #415, #796 ) ;
#36 = SURFACE_STYLE_USAGE ( .BOTH. , #686 ) ;
#37 =( LENGTH_UNIT ( ) NAMED_UNIT ( * ) SI_UNIT ( .MILLI., .METRE. ) );
#38 = LINE ( 'NONE', #119, #897 ) ;
#39 = FACE_OUTER_BOUND ( 'NONE', #610, .T. ) ;
#40 = MECHANICAL_DESIGN_GEOMETRIC_PRESENTATION_REPRESENTATION (  '', ( #745 ), #290 ) ;
#41 = MECHANICAL_DESIGN_GEOMETRIC_PRESENTATION_REPRESENTATION (  '', ( #463 ), #521 ) ;
#42 = ORIENTED_EDGE ( 'NONE', *, *, #324, .F. ) ;
#43 = EDGE_CURVE ( 'NONE', #681, #827, #51, .T. ) ;
#44 = CIRCLE ( 'NONE', #260, 0.2500000000000002220 ) ;
#45 = SURFACE_STYLE_USAGE ( .BOTH. , #537 ) ;
#46 =( NAMED_UNIT ( * ) SI_UNIT ( $, .STERADIAN. ) SOLID_ANGLE_UNIT ( ) );
#47 = ORIENTED_EDGE ( 'NONE', *, *, #534, .F. ) ;
#48 = DIRECTION ( 'NONE',  ( 0.000000000000000000, 0.000000000000000000, 1.000000000000000000 ) ) ;
#49 = PRESENTATION_STYLE_ASSIGNMENT (( #567 ) ) ;
#50 = DIRECTION ( 'NONE',  ( 1.000000000000000000, 0.000000000000000000, 0.000000000000000000 ) ) ;
#51 = LINE ( 'NONE', #349, #532 ) ;
#52 = DIRECTION ( 'NONE',  ( 1.000000000000000000, 0.000000000000000000, -0.000000000000000000 ) ) ;
#53 = ORIENTED_EDGE ( 'NONE', *, *, #350, .T. ) ;
#54 = VECTOR ( 'NONE', #390, 1000.000000000000000 ) ;
#55 = MECHANICAL_DESIGN_GEOMETRIC_PRESENTATION_REPRESENTATION (  '', ( #896 ), #21 ) ;
#56 = MECHANICAL_DESIGN_GEOMETRIC_PRESENTATION_REPRESENTATION (  '', ( #154 ), #308 ) ;
#57 = FACE_OUTER_BOUND ( 'NONE', #388, .T. ) ;
#58 = EDGE_CURVE ( 'NONE', #250, #681, #757, .T. ) ;
#59 = CARTESIAN_POINT ( 'NONE',  ( 3.280000000000000693, 6.000000000000000000, 3.129999999999999005 ) ) ;
#60 = VERTEX_POINT ( 'NONE', #294 ) ;
#61 = PRESENTATION_STYLE_ASSIGNMENT (( #517 ) ) ;
#62 = DIRECTION ( 'NONE',  ( -1.283079494065685941E-16, 0.000000000000000000, -1.000000000000000000 ) ) ;
#63 = FACE_BOUND ( 'NONE', #4, .T. ) ;
#64 = ORIENTED_EDGE ( 'NONE', *, *, #709, .T. ) ;
#65 =( NAMED_UNIT ( * ) PLANE_ANGLE_UNIT ( ) SI_UNIT ( $, .RADIAN. ) );
#66 = PLANE ( 'NONE',  #445 ) ;
#67 = SURFACE_SIDE_STYLE ('',( #144 ) ) ;
#68 = LINE ( 'NONE', #282, #479 ) ;
#69 = ORIENTED_EDGE ( 'NONE', *, *, #637, .F. ) ;
#70 = EDGE_CURVE ( 'NONE', #821, #805, #497, .T. ) ;
#71 = MECHANICAL_DESIGN_GEOMETRIC_PRESENTATION_REPRESENTATION (  '', ( #519 ), #319 ) ;
#72 = UNCERTAINTY_MEASURE_WITH_UNIT (LENGTH_MEASURE( 1.000000000000000082E-05 ), #165, 'distance_accuracy_value', 'NONE');
#73 = DIRECTION ( 'NONE',  ( 0.000000000000000000, 0.000000000000000000, 1.000000000000000000 ) ) ;
#74 =( GEOMETRIC_REPRESENTATION_CONTEXT ( 3 ) GLOBAL_UNCERTAINTY_ASSIGNED_CONTEXT ( ( #593 ) ) GLOBAL_UNIT_ASSIGNED_CONTEXT ( ( #292, #216, #903 ) ) REPRESENTATION_CONTEXT ( 'NONE', 'WORKASPACE' ) );
#75 = STYLED_ITEM ( 'NONE', ( #717 ), #789 ) ;
#76 = LINE ( 'NONE', #247, #54 ) ;
#77 = SURFACE_STYLE_FILL_AREA ( #86 ) ;
#78 = ORIENTED_EDGE ( 'NONE', *, *, #410, .T. ) ;
#79 = FILL_AREA_STYLE_COLOUR ( '', #800 ) ;
#80 = CARTESIAN_POINT ( 'NONE',  ( 2.644999999999999130, -0.1000000000000000056, -2.500000000000000444 ) ) ;
#81 = CARTESIAN_POINT ( 'NONE',  ( 1.394999999999999352, -0.1000000000000000056, -2.500000000000000444 ) ) ;
#82 = CARTESIAN_POINT ( 'NONE',  ( 2.644999999999999130, 0.000000000000000000, 2.500000000000000444 ) ) ;
#83 = FACE_OUTER_BOUND ( 'NONE', #311, .T. ) ;
#84 = UNCERTAINTY_MEASURE_WITH_UNIT (LENGTH_MEASURE( 1.000000000000000082E-05 ), #327, 'distance_accuracy_value', 'NONE');
#85 = PRESENTATION_STYLE_ASSIGNMENT (( #726 ) ) ;
#86 = FILL_AREA_STYLE ('',( #666 ) ) ;
#87 = ORIENTED_EDGE ( 'NONE', *, *, #122, .F. ) ;
#88 = DIRECTION ( 'NONE',  ( 1.000000000000000000, -0.000000000000000000, 0.000000000000000000 ) ) ;
#89 = CARTESIAN_POINT ( 'NONE',  ( -3.029999999999998916, 6.198999999999999844, 3.129999999999999893 ) ) ;
#90 = AXIS2_PLACEMENT_3D ( 'NONE', #436, #652, #5 ) ;
#91 = EDGE_LOOP ( 'NONE', ( #861, #457, #603, #344 ) ) ;
#92 = ADVANCED_FACE ( 'NONE', ( #39 ), #120, .F. ) ;
#93 =( NAMED_UNIT ( * ) SI_UNIT ( $, .STERADIAN. ) SOLID_ANGLE_UNIT ( ) );
#94 = ORIENTED_EDGE ( 'NONE', *, *, #893, .T. ) ;
#95 = FILL_AREA_STYLE ('',( #407 ) ) ;
#96 = SURFACE_SIDE_STYLE ('',( #888 ) ) ;
#97 = EDGE_LOOP ( 'NONE', ( #606, #710, #545, #175 ) ) ;
#98 = LINE ( 'NONE', #751, #596 ) ;
#99 =( NAMED_UNIT ( * ) SI_UNIT ( $, .STERADIAN. ) SOLID_ANGLE_UNIT ( ) );
#100 = SURFACE_STYLE_USAGE ( .BOTH. , #414 ) ;
#101 = AXIS2_PLACEMENT_3D ( 'NONE', #768, #501, #48 ) ;
#102 = VERTEX_POINT ( 'NONE', #81 ) ;
#103 = CARTESIAN_POINT ( 'NONE',  ( 3.280000000000000693, 6.198999999999999844, 3.129999999999999893 ) ) ;
#104 = MANIFOLD_SOLID_BREP ( 'Cut-Extrude1', #287 ) ;
#105 = FACE_OUTER_BOUND ( 'NONE', #126, .T. ) ;
#106 = FILL_AREA_STYLE_COLOUR ( '', #506 ) ;
#107 = DIRECTION ( 'NONE',  ( -1.000000000000000000, 0.000000000000000000, -0.000000000000000000 ) ) ;
#108 = EDGE_LOOP ( 'NONE', ( #579, #215, #523, #474 ) ) ;
#109 = FACE_OUTER_BOUND ( 'NONE', #838, .T. ) ;
#110 = PLANE ( 'NONE',  #783 ) ;
#111 = PRESENTATION_STYLE_ASSIGNMENT (( #100 ) ) ;
#112 = EDGE_CURVE ( 'NONE', #916, #149, #386, .T. ) ;
#113 = CARTESIAN_POINT ( 'NONE',  ( -3.095449846949786199, 0.000000000000000000, -3.379999999999999893 ) ) ;
#114 = VERTEX_POINT ( 'NONE', #312 ) ;
#115 = CARTESIAN_POINT ( 'NONE',  ( 3.280000000000000693, 0.000000000000000000, 2.500000000000000000 ) ) ;
#116 = SHAPE_DEFINITION_REPRESENTATION ( #251, #230 ) ;
#117 = VECTOR ( 'NONE', #411, 1000.000000000000000 ) ;
#118 = VECTOR ( 'NONE', #14, 1000.000000000000000 ) ;
#119 = CARTESIAN_POINT ( 'NONE',  ( 2.644999999999999130, 0.000000000000000000, 3.380000000000000338 ) ) ;
#120 = PLANE ( 'NONE',  #225 ) ;
#121 = VECTOR ( 'NONE', #589, 1000.000000000000000 ) ;
#122 = EDGE_CURVE ( 'NONE', #289, #16, #551, .T. ) ;
#123 = STYLED_ITEM ( 'NONE', ( #742 ), #904 ) ;
#124 = CARTESIAN_POINT ( 'NONE',  ( -1.394999999999999574, 0.000000000000000000, -2.500000000000000444 ) ) ;
#125 = CARTESIAN_POINT ( 'NONE',  ( 3.030000000000000693, 0.000000000000000000, 3.380000000000000338 ) ) ;
#126 = EDGE_LOOP ( 'NONE', ( #676, #452, #662, #169 ) ) ;
#127 = CARTESIAN_POINT ( 'NONE',  ( 3.279999999999999805, 6.198999999999999844, -3.129999999999999005 ) ) ;
#128 =( LENGTH_UNIT ( ) NAMED_UNIT ( * ) SI_UNIT ( .MILLI., .METRE. ) );
#129 = FILL_AREA_STYLE_COLOUR ( '', #644 ) ;
#130 = DIRECTION ( 'NONE',  ( -1.000000000000000000, 0.000000000000000000, 0.000000000000000000 ) ) ;
#131 = EDGE_CURVE ( 'NONE', #825, #854, #239, .T. ) ;
#132 = DIRECTION ( 'NONE',  ( 1.000000000000000000, -0.000000000000000000, 0.000000000000000000 ) ) ;
#133 = EDGE_CURVE ( 'NONE', #30, #376, #848, .T. ) ;
#134 = EDGE_CURVE ( 'NONE', #845, #470, #76, .T. ) ;
#135 = MECHANICAL_DESIGN_GEOMETRIC_PRESENTATION_REPRESENTATION (  '', ( #6 ), #535 ) ;
#136 = STYLED_ITEM ( 'NONE', ( #413 ), #151 ) ;
#137 = AXIS2_PLACEMENT_3D ( 'NONE', #293, #847, #508 ) ;
#138 = PRESENTATION_LAYER_ASSIGNMENT (  '', '', ( #649 ) ) ;
#139 = DIRECTION ( 'NONE',  ( -0.000000000000000000, -1.000000000000000000, -0.000000000000000000 ) ) ;
#140 = FACE_OUTER_BOUND ( 'NONE', #314, .T. ) ;
#141 = ORIENTED_EDGE ( 'NONE', *, *, #866, .F. ) ;
#142 = DIRECTION ( 'NONE',  ( 0.000000000000000000, -1.000000000000000000, 0.000000000000000000 ) ) ;
#143 = UNCERTAINTY_MEASURE_WITH_UNIT (LENGTH_MEASURE( 1.000000000000000082E-05 ), #358, 'distance_accuracy_value', 'NONE');
#144 = SURFACE_STYLE_FILL_AREA ( #373 ) ;
#145 = SURFACE_SIDE_STYLE ('',( #899 ) ) ;
#146 = ORIENTED_EDGE ( 'NONE', *, *, #29, .T. ) ;
#147 = PRESENTATION_STYLE_ASSIGNMENT (( #153 ) ) ;
#148 =( NAMED_UNIT ( * ) PLANE_ANGLE_UNIT ( ) SI_UNIT ( $, .RADIAN. ) );
#149 = VERTEX_POINT ( 'NONE', #670 ) ;
#150 = PRESENTATION_STYLE_ASSIGNMENT (( #908 ) ) ;
#151 = ADVANCED_FACE ( 'NONE', ( #317 ), #542, .F. ) ;
#152 = UNCERTAINTY_MEASURE_WITH_UNIT (LENGTH_MEASURE( 1.000000000000000082E-05 ), #563, 'distance_accuracy_value', 'NONE');
#153 = SURFACE_STYLE_USAGE ( .BOTH. , #659 ) ;
#154 = STYLED_ITEM ( 'NONE', ( #61 ), #557 ) ;
#155 = CARTESIAN_POINT ( 'NONE',  ( 1.394999999999999352, -0.1000000000000000056, -2.500000000000000444 ) ) ;
#156 = DIRECTION ( 'NONE',  ( 0.000000000000000000, 0.000000000000000000, -1.000000000000000000 ) ) ;
#157 = CARTESIAN_POINT ( 'NONE',  ( 1.394999999999999352, -0.1000000000000000056, 2.500000000000000444 ) ) ;
#158 = CARTESIAN_POINT ( 'NONE',  ( 2.644999999999999130, -0.1000000000000000056, -2.500000000000000444 ) ) ;
#159 = ORIENTED_EDGE ( 'NONE', *, *, #389, .F. ) ;
#160 = UNCERTAINTY_MEASURE_WITH_UNIT (LENGTH_MEASURE( 1.000000000000000082E-05 ), #597, 'distance_accuracy_value', 'NONE');
#161 = CARTESIAN_POINT ( 'NONE',  ( -2.644999999999999130, -0.1000000000000000056, 2.500000000000000000 ) ) ;
#162 = ORIENTED_EDGE ( 'NONE', *, *, #534, .T. ) ;
#163 = EDGE_CURVE ( 'NONE', #114, #250, #243, .T. ) ;
#164 = CARTESIAN_POINT ( 'NONE',  ( 3.253056725902453650, -0.000000000000000000, -3.260496664690820889 ) ) ;
#165 =( LENGTH_UNIT ( ) NAMED_UNIT ( * ) SI_UNIT ( .MILLI., .METRE. ) );
#166 = SURFACE_STYLE_FILL_AREA ( #797 ) ;
#167 = VECTOR ( 'NONE', #50, 1000.000000000000000 ) ;
#168 = AXIS2_PLACEMENT_3D ( 'NONE', #89, #518, #442 ) ;
#169 = ORIENTED_EDGE ( 'NONE', *, *, #787, .F. ) ;
#170 = DIRECTION ( 'NONE',  ( 0.000000000000000000, 1.000000000000000000, 0.000000000000000000 ) ) ;
#171 = CARTESIAN_POINT ( 'NONE',  ( 1.394999999999999352, -0.1000000000000000056, 2.500000000000000444 ) ) ;
#172 = VERTEX_POINT ( 'NONE', #735 ) ;
#173 = ADVANCED_FACE ( 'NONE', ( #741 ), #547, .F. ) ;
#174 = CARTESIAN_POINT ( 'NONE',  ( -1.394999999999999352, -0.1000000000000000056, 2.500000000000000000 ) ) ;
#175 = ORIENTED_EDGE ( 'NONE', *, *, #324, .T. ) ;
#176 =( NAMED_UNIT ( * ) PLANE_ANGLE_UNIT ( ) SI_UNIT ( $, .RADIAN. ) );
#177 = ADVANCED_FACE ( 'NONE', ( #105 ), #110, .F. ) ;
#178 = PRESENTATION_STYLE_ASSIGNMENT (( #321 ) ) ;
#179 =( NAMED_UNIT ( * ) SI_UNIT ( $, .STERADIAN. ) SOLID_ANGLE_UNIT ( ) );
#180 =( GEOMETRIC_REPRESENTATION_CONTEXT ( 3 ) GLOBAL_UNCERTAINTY_ASSIGNED_CONTEXT ( ( #300 ) ) GLOBAL_UNIT_ASSIGNED_CONTEXT ( ( #889, #188, #207 ) ) REPRESENTATION_CONTEXT ( 'NONE', 'WORKASPACE' ) );
#181 = COLOUR_RGB ( '',0.8274509803921568096, 0.8392156862745098200, 0.8274509803921568096 ) ;
#182 = PRESENTATION_STYLE_ASSIGNMENT (( #792 ) ) ;
#183 = MECHANICAL_DESIGN_GEOMETRIC_PRESENTATION_REPRESENTATION (  '', ( #213 ), #74 ) ;
#184 = VECTOR ( 'NONE', #460, 1000.000000000000000 ) ;
#185 = SURFACE_STYLE_FILL_AREA ( #604 ) ;
#186 = VERTEX_POINT ( 'NONE', #127 ) ;
#187 = FILL_AREA_STYLE_COLOUR ( '', #258 ) ;
#188 =( NAMED_UNIT ( * ) PLANE_ANGLE_UNIT ( ) SI_UNIT ( $, .RADIAN. ) );
#189 = DIRECTION ( 'NONE',  ( 1.000000000000000000, 0.000000000000000000, 0.000000000000000000 ) ) ;
#190 = LINE ( 'NONE', #544, #24 ) ;
#191 = CARTESIAN_POINT ( 'NONE',  ( 3.280000000000000693, 6.198999999999999844, 3.129999999999999893 ) ) ;
#192 = DIRECTION ( 'NONE',  ( -1.000000000000000000, -0.000000000000000000, 0.000000000000000000 ) ) ;
#193 = DIRECTION ( 'NONE',  ( 0.000000000000000000, 0.000000000000000000, -1.000000000000000000 ) ) ;
#194 = CARTESIAN_POINT ( 'NONE',  ( -2.644999999999999130, 0.000000000000000000, 2.500000000000000000 ) ) ;
#195 =( GEOMETRIC_REPRESENTATION_CONTEXT ( 3 ) GLOBAL_UNCERTAINTY_ASSIGNED_CONTEXT ( ( #453 ) ) GLOBAL_UNIT_ASSIGNED_CONTEXT ( ( #25, #176, #93 ) ) REPRESENTATION_CONTEXT ( 'NONE', 'WORKASPACE' ) );
#196 = AXIS2_PLACEMENT_3D ( 'NONE', #174, #725, #249 ) ;
#197 =( GEOMETRIC_REPRESENTATION_CONTEXT ( 3 ) GLOBAL_UNCERTAINTY_ASSIGNED_CONTEXT ( ( #850 ) ) GLOBAL_UNIT_ASSIGNED_CONTEXT ( ( #456, #148, #466 ) ) REPRESENTATION_CONTEXT ( 'NONE', 'WORKASPACE' ) );
#198 = SURFACE_SIDE_STYLE ('',( #830 ) ) ;
#199 = CARTESIAN_POINT ( 'NONE',  ( -2.644999999999999130, -0.1000000000000000056, -2.500000000000000000 ) ) ;
#200 = CARTESIAN_POINT ( 'NONE',  ( 3.280000000000000693, 0.000000000000000000, 3.380000000000000338 ) ) ;
#201 = DIRECTION ( 'NONE',  ( -0.000000000000000000, -1.000000000000000000, 0.000000000000000000 ) ) ;
#202 = PLANE ( 'NONE',  #101 ) ;
#203 = EDGE_CURVE ( 'NONE', #902, #615, #265, .T. ) ;
#204 = LINE ( 'NONE', #59, #322 ) ;
#205 = ORIENTED_EDGE ( 'NONE', *, *, #723, .F. ) ;
#206 = EDGE_CURVE ( 'NONE', #149, #799, #421, .T. ) ;
#207 =( NAMED_UNIT ( * ) SI_UNIT ( $, .STERADIAN. ) SOLID_ANGLE_UNIT ( ) );
#208 = CARTESIAN_POINT ( 'NONE',  ( 3.253056725902453650, -0.000000000000000000, 3.260496664690819557 ) ) ;
#209 = ORIENTED_EDGE ( 'NONE', *, *, #635, .T. ) ;
#210 =( GEOMETRIC_REPRESENTATION_CONTEXT ( 3 ) GLOBAL_UNCERTAINTY_ASSIGNED_CONTEXT ( ( #788 ) ) GLOBAL_UNIT_ASSIGNED_CONTEXT ( ( #252, #608, #539 ) ) REPRESENTATION_CONTEXT ( 'NONE', 'WORKASPACE' ) );
#211 = STYLED_ITEM ( 'NONE', ( #464 ), #375 ) ;
#212 = CARTESIAN_POINT ( 'NONE',  ( -3.029999999999999805, 6.000000000000000000, -3.129999999999999005 ) ) ;
#213 = STYLED_ITEM ( 'NONE', ( #150 ), #515 ) ;
#214 = LINE ( 'NONE', #494, #385 ) ;
#215 = ORIENTED_EDGE ( 'NONE', *, *, #853, .F. ) ;
#216 =( NAMED_UNIT ( * ) PLANE_ANGLE_UNIT ( ) SI_UNIT ( $, .RADIAN. ) );
#217 = UNCERTAINTY_MEASURE_WITH_UNIT (LENGTH_MEASURE( 1.000000000000000082E-05 ), #548, 'distance_accuracy_value', 'NONE');
#218 = FILL_AREA_STYLE ('',( #912 ) ) ;
#219 = DIRECTION ( 'NONE',  ( 0.000000000000000000, 0.000000000000000000, 1.000000000000000000 ) ) ;
#220 = LINE ( 'NONE', #161, #818 ) ;
#221 = EDGE_LOOP ( 'NONE', ( #813, #684, #146, #94 ) ) ;
#222 = FILL_AREA_STYLE_COLOUR ( '', #914 ) ;
#223 = CARTESIAN_POINT ( 'NONE',  ( -2.644999999999999130, -0.1000000000000000056, -2.500000000000000000 ) ) ;
#224 = ORIENTED_EDGE ( 'NONE', *, *, #58, .T. ) ;
#225 = AXIS2_PLACEMENT_3D ( 'NONE', #777, #219, #459 ) ;
#226 = SURFACE_SIDE_STYLE ('',( #711 ) ) ;
#227 = VECTOR ( 'NONE', #703, 1000.000000000000000 ) ;
#228 = PRODUCT_DEFINITION_CONTEXT ( 'detailed design', #232, 'design' ) ;
#229 = FACE_OUTER_BOUND ( 'NONE', #405, .T. ) ;
#230 = ADVANCED_BREP_SHAPE_REPRESENTATION ( 'XAL6060-153MEC', ( #104, #773 ), #261 ) ;
#231 = ORIENTED_EDGE ( 'NONE', *, *, #131, .T. ) ;
#232 = APPLICATION_CONTEXT ( 'automotive_design' ) ;
#233 = PLANE ( 'NONE',  #90 ) ;
#234 =( NAMED_UNIT ( * ) SI_UNIT ( $, .STERADIAN. ) SOLID_ANGLE_UNIT ( ) );
#235 = ADVANCED_FACE ( 'NONE', ( #342 ), #564, .F. ) ;
#236 = CARTESIAN_POINT ( 'NONE',  ( 3.279999999999999805, 0.000000000000000000, -3.129999999999999005 ) ) ;
#237 = ORIENTED_EDGE ( 'NONE', *, *, #58, .F. ) ;
#238 = CARTESIAN_POINT ( 'NONE',  ( 3.029999999999999805, 0.000000000000000000, -3.379999999999999449 ) ) ;
#239 = LINE ( 'NONE', #296, #382 ) ;
#240 = ORIENTED_EDGE ( 'NONE', *, *, #43, .F. ) ;
#241 = SURFACE_STYLE_FILL_AREA ( #870 ) ;
#242 = PRESENTATION_LAYER_ASSIGNMENT (  '', '', ( #647 ) ) ;
#243 = LINE ( 'NONE', #887, #909 ) ;
#244 =( LENGTH_UNIT ( ) NAMED_UNIT ( * ) SI_UNIT ( .MILLI., .METRE. ) );
#245 = VECTOR ( 'NONE', #587, 1000.000000000000000 ) ;
#246 = EDGE_LOOP ( 'NONE', ( #240, #237, #462, #205 ) ) ;
#247 = CARTESIAN_POINT ( 'NONE',  ( 3.029999999999999805, 6.000000000000000000, -3.379999999999999449 ) ) ;
#248 =( LENGTH_UNIT ( ) NAMED_UNIT ( * ) SI_UNIT ( .MILLI., .METRE. ) );
#249 = DIRECTION ( 'NONE',  ( 0.000000000000000000, -0.000000000000000000, 1.000000000000000000 ) ) ;
#250 = VERTEX_POINT ( 'NONE', #124 ) ;
#251 = PRODUCT_DEFINITION_SHAPE ( 'NONE', 'NONE',  #450 ) ;
#252 =( LENGTH_UNIT ( ) NAMED_UNIT ( * ) SI_UNIT ( .MILLI., .METRE. ) );
#253 = B_SPLINE_CURVE_WITH_KNOTS ( 'NONE', 3,
 ( #125, #636, #832, #208, #422, #503 ),
 .UNSPECIFIED., .F., .F.,
 ( 4, 2, 4 ),
 ( 0.000000000000000000, 0.5000000000000000000, 1.000000000000000000 ),
 .UNSPECIFIED. ) ;
#254 = ORIENTED_EDGE ( 'NONE', *, *, #723, .T. ) ;
#255 = CARTESIAN_POINT ( 'NONE',  ( -2.644999999999999130, -0.1000000000000000056, 2.500000000000000000 ) ) ;
#256 = FILL_AREA_STYLE_COLOUR ( '', #416 ) ;
#257 = STYLED_ITEM ( 'NONE', ( #178 ), #173 ) ;
#258 = COLOUR_RGB ( '',0.8274509803921568096, 0.8392156862745098200, 0.8274509803921568096 ) ;
#259 = EDGE_LOOP ( 'NONE', ( #516, #87, #540, #629 ) ) ;
#260 = AXIS2_PLACEMENT_3D ( 'NONE', #299, #511, #438 ) ;
#261 =( GEOMETRIC_REPRESENTATION_CONTEXT ( 3 ) GLOBAL_UNCERTAINTY_ASSIGNED_CONTEXT ( ( #653 ) ) GLOBAL_UNIT_ASSIGNED_CONTEXT ( ( #37, #333, #179 ) ) REPRESENTATION_CONTEXT ( 'NONE', 'WORKASPACE' ) );
#262 = EDGE_CURVE ( 'NONE', #186, #821, #695, .T. ) ;
#263 =( NAMED_UNIT ( * ) SI_UNIT ( $, .STERADIAN. ) SOLID_ANGLE_UNIT ( ) );
#264 = ORIENTED_EDGE ( 'NONE', *, *, #562, .F. ) ;
#265 = LINE ( 'NONE', #115, #828 ) ;
#266 = CARTESIAN_POINT ( 'NONE',  ( -3.160496664690821245, -0.000000000000000000, -3.353056725902453294 ) ) ;
#267 = EDGE_LOOP ( 'NONE', ( #913, #254, #357, #334 ) ) ;
#268 = CARTESIAN_POINT ( 'NONE',  ( -2.644999999999999130, 0.000000000000000000, 3.380000000000000338 ) ) ;
#269 = EDGE_CURVE ( 'NONE', #376, #879, #627, .T. ) ;
#270 = AXIS2_PLACEMENT_3D ( 'NONE', #808, #872, #20 ) ;
#271 = DIRECTION ( 'NONE',  ( 0.000000000000000000, 1.000000000000000000, 0.000000000000000000 ) ) ;
#272 = CARTESIAN_POINT ( 'NONE',  ( -1.394999999999999352, -0.1000000000000000056, -2.500000000000000888 ) ) ;
#273 = VECTOR ( 'NONE', #107, 1000.000000000000000 ) ;
#274 = ORIENTED_EDGE ( 'NONE', *, *, #638, .T. ) ;
#275 = PRESENTATION_LAYER_ASSIGNMENT (  '', '', ( #75 ) ) ;
#276 = PRESENTATION_STYLE_ASSIGNMENT (( #354 ) ) ;
#277 = FILL_AREA_STYLE ('',( #558 ) ) ;
#278 = DIRECTION ( 'NONE',  ( 1.000000000000000000, 0.000000000000000000, -0.000000000000000000 ) ) ;
#279 = VERTEX_POINT ( 'NONE', #496 ) ;
#280 = ADVANCED_FACE ( 'NONE', ( #57 ), #355, .F. ) ;
#281 = CARTESIAN_POINT ( 'NONE',  ( -3.279999999999998916, 0.000000000000000000, 3.380000000000000338 ) ) ;
#282 = CARTESIAN_POINT ( 'NONE',  ( -1.394999999999999574, 0.000000000000000000, 3.380000000000000338 ) ) ;
#283 = FACE_OUTER_BOUND ( 'NONE', #643, .T. ) ;
#284 = ADVANCED_FACE ( 'NONE', ( #285 ), #590, .T. ) ;
#285 = FACE_OUTER_BOUND ( 'NONE', #108, .T. ) ;
#286 = LINE ( 'NONE', #705, #759 ) ;
#287 = CLOSED_SHELL ( 'NONE', ( #609, #515, #284, #918, #557, #92, #177, #380, #758, #280, #173, #295, #151, #447, #789, #235, #375, #904, #576, #346 ) ) ;
#288 = AXIS2_PLACEMENT_3D ( 'NONE', #864, #601, #867 ) ;
#289 = VERTEX_POINT ( 'NONE', #863 ) ;
#290 =( GEOMETRIC_REPRESENTATION_CONTEXT ( 3 ) GLOBAL_UNCERTAINTY_ASSIGNED_CONTEXT ( ( #143 ) ) GLOBAL_UNIT_ASSIGNED_CONTEXT ( ( #358, #905, #301 ) ) REPRESENTATION_CONTEXT ( 'NONE', 'WORKASPACE' ) );
#291 = VECTOR ( 'NONE', #779, 1000.000000000000000 ) ;
#292 =( LENGTH_UNIT ( ) NAMED_UNIT ( * ) SI_UNIT ( .MILLI., .METRE. ) );
#293 = CARTESIAN_POINT ( 'NONE',  ( -3.029999999999998916, 6.000000000000000000, 3.129999999999999893 ) ) ;
#294 = CARTESIAN_POINT ( 'NONE',  ( 1.394999999999999352, 0.000000000000000000, 2.500000000000000444 ) ) ;
#295 = ADVANCED_FACE ( 'NONE', ( #372 ), #66, .F. ) ;
#296 = CARTESIAN_POINT ( 'NONE',  ( -2.644999999999999130, -0.1000000000000000056, -2.500000000000000000 ) ) ;
#297 = LINE ( 'NONE', #793, #184 ) ;
#298 = ORIENTED_EDGE ( 'NONE', *, *, #410, .F. ) ;
#299 = CARTESIAN_POINT ( 'NONE',  ( -3.029999999999999805, 6.198999999999999844, -3.129999999999999005 ) ) ;
#300 = UNCERTAINTY_MEASURE_WITH_UNIT (LENGTH_MEASURE( 1.000000000000000082E-05 ), #889, 'distance_accuracy_value', 'NONE');
#301 =( NAMED_UNIT ( * ) SI_UNIT ( $, .STERADIAN. ) SOLID_ANGLE_UNIT ( ) );
#302 = CARTESIAN_POINT ( 'NONE',  ( -2.644999999999999130, -0.1000000000000000056, 2.500000000000000000 ) ) ;
#303 = ORIENTED_EDGE ( 'NONE', *, *, #762, .F. ) ;
#304 = CARTESIAN_POINT ( 'NONE',  ( -3.029999999999998916, 6.000000000000000000, 3.380000000000000338 ) ) ;
#305 = ORIENTED_EDGE ( 'NONE', *, *, #269, .T. ) ;
#306 = FILL_AREA_STYLE ('',( #222 ) ) ;
#307 = AXIS2_PLACEMENT_3D ( 'NONE', #199, #132, #193 ) ;
#308 =( GEOMETRIC_REPRESENTATION_CONTEXT ( 3 ) GLOBAL_UNCERTAINTY_ASSIGNED_CONTEXT ( ( #361 ) ) GLOBAL_UNIT_ASSIGNED_CONTEXT ( ( #377, #65, #656 ) ) REPRESENTATION_CONTEXT ( 'NONE', 'WORKASPACE' ) );
#309 = AXIS2_PLACEMENT_3D ( 'NONE', #223, #9, #657 ) ;
#310 = CARTESIAN_POINT ( 'NONE',  ( -3.279999999999998916, 0.000000000000000000, 3.129999999999999005 ) ) ;
#311 = EDGE_LOOP ( 'NONE', ( #500, #722, #69, #437 ) ) ;
#312 = CARTESIAN_POINT ( 'NONE',  ( -2.644999999999999130, 0.000000000000000000, -2.499999999999999556 ) ) ;
#313 = LINE ( 'NONE', #602, #693 ) ;
#314 = EDGE_LOOP ( 'NONE', ( #419, #42, #720, #689, #340, #655, #731, #894 ) ) ;
#315 = EDGE_CURVE ( 'NONE', #16, #186, #362, .T. ) ;
#316 = DIRECTION ( 'NONE',  ( 0.000000000000000000, 1.000000000000000000, 0.000000000000000000 ) ) ;
#317 = FACE_OUTER_BOUND ( 'NONE', #651, .T. ) ;
#318 = ORIENTED_EDGE ( 'NONE', *, *, #29, .F. ) ;
#319 =( GEOMETRIC_REPRESENTATION_CONTEXT ( 3 ) GLOBAL_UNCERTAINTY_ASSIGNED_CONTEXT ( ( #72 ) ) GLOBAL_UNIT_ASSIGNED_CONTEXT ( ( #165, #417, #632 ) ) REPRESENTATION_CONTEXT ( 'NONE', 'WORKASPACE' ) );
#320 = AXIS2_PLACEMENT_3D ( 'NONE', #255, #552, #817 ) ;
#321 = SURFACE_STYLE_USAGE ( .BOTH. , #803 ) ;
#322 = VECTOR ( 'NONE', #640, 1000.000000000000000 ) ;
#323 = DIRECTION ( 'NONE',  ( 0.000000000000000000, 0.000000000000000000, -1.000000000000000000 ) ) ;
#324 = EDGE_CURVE ( 'NONE', #821, #845, #668, .T. ) ;
#325 = MECHANICAL_DESIGN_GEOMETRIC_PRESENTATION_REPRESENTATION (  '', ( #11 ), #403 ) ;
#326 = ORIENTED_EDGE ( 'NONE', *, *, #163, .F. ) ;
#327 =( LENGTH_UNIT ( ) NAMED_UNIT ( * ) SI_UNIT ( .MILLI., .METRE. ) );
#328 = SURFACE_STYLE_FILL_AREA ( #679 ) ;
#329 = DIRECTION ( 'NONE',  ( 0.000000000000000000, -1.000000000000000000, 0.000000000000000000 ) ) ;
#330 = FILL_AREA_STYLE ('',( #418 ) ) ;
#331 = ORIENTED_EDGE ( 'NONE', *, *, #841, .F. ) ;
#332 = SURFACE_STYLE_USAGE ( .BOTH. , #33 ) ;
#333 =( NAMED_UNIT ( * ) PLANE_ANGLE_UNIT ( ) SI_UNIT ( $, .RADIAN. ) );
#334 = ORIENTED_EDGE ( 'NONE', *, *, #841, .T. ) ;
#335 = B_SPLINE_CURVE_WITH_KNOTS ( 'NONE', 3,
 ( #561, #566, #571, #833, #337, #489 ),
 .UNSPECIFIED., .F., .F.,
 ( 4, 2, 4 ),
 ( 0.000000000000000000, 0.5000000000000000000, 1.000000000000000000 ),
 .UNSPECIFIED. ) ;
#336 = SURFACE_SIDE_STYLE ('',( #34 ) ) ;
#337 = CARTESIAN_POINT ( 'NONE',  ( -3.095449846949786643, 0.000000000000000000, 3.380000000000000782 ) ) ;
#338 = PRESENTATION_LAYER_ASSIGNMENT (  '', '', ( #733 ) ) ;
#339 = PRODUCT_DEFINITION_FORMATION_WITH_SPECIFIED_SOURCE ( 'ANY', '', #553, .NOT_KNOWN. ) ;
#340 = ORIENTED_EDGE ( 'NONE', *, *, #490, .T. ) ;
#341 =( NAMED_UNIT ( * ) PLANE_ANGLE_UNIT ( ) SI_UNIT ( $, .RADIAN. ) );
#342 = FACE_OUTER_BOUND ( 'NONE', #714, .T. ) ;
#343 = CARTESIAN_POINT ( 'NONE',  ( -3.279999999999999805, 0.000000000000000000, -3.129999999999999005 ) ) ;
#344 = ORIENTED_EDGE ( 'NONE', *, *, #765, .T. ) ;
#345 = CARTESIAN_POINT ( 'NONE',  ( -3.279999999999998916, 6.000000000000000000, 3.380000000000000338 ) ) ;
#346 = ADVANCED_FACE ( 'NONE', ( #476 ), #406, .T. ) ;
#347 = DIRECTION ( 'NONE',  ( -0.000000000000000000, -1.000000000000000000, 0.000000000000000000 ) ) ;
#348 = CARTESIAN_POINT ( 'NONE',  ( 2.644999999999999130, 0.000000000000000000, -2.500000000000000444 ) ) ;
#349 = CARTESIAN_POINT ( 'NONE',  ( -1.394999999999999352, -0.1000000000000000056, 2.500000000000000000 ) ) ;
#350 = EDGE_CURVE ( 'NONE', #882, #916, #98, .T. ) ;
#351 =( NAMED_UNIT ( * ) PLANE_ANGLE_UNIT ( ) SI_UNIT ( $, .RADIAN. ) );
#352 = MECHANICAL_DESIGN_GEOMETRIC_PRESENTATION_REPRESENTATION (  '', ( #257 ), #646 ) ;
#353 = CARTESIAN_POINT ( 'NONE',  ( 1.394999999999999352, 0.000000000000000000, -2.500000000000000444 ) ) ;
#354 = SURFACE_STYLE_USAGE ( .BOTH. , #198 ) ;
#355 = PLANE ( 'NONE',  #690 ) ;
#356 = CARTESIAN_POINT ( 'NONE',  ( -1.394999999999999352, -0.1000000000000000056, -2.500000000000000444 ) ) ;
#357 = ORIENTED_EDGE ( 'NONE', *, *, #203, .T. ) ;
#358 =( LENGTH_UNIT ( ) NAMED_UNIT ( * ) SI_UNIT ( .MILLI., .METRE. ) );
#359 = FILL_AREA_STYLE ('',( #769 ) ) ;
#360 = ORIENTED_EDGE ( 'NONE', *, *, #203, .F. ) ;
#361 = UNCERTAINTY_MEASURE_WITH_UNIT (LENGTH_MEASURE( 1.000000000000000082E-05 ), #377, 'distance_accuracy_value', 'NONE');
#362 = LINE ( 'NONE', #103, #815 ) ;
#363 = SURFACE_STYLE_USAGE ( .BOTH. , #481 ) ;
#364 =( NAMED_UNIT ( * ) SI_UNIT ( $, .STERADIAN. ) SOLID_ANGLE_UNIT ( ) );
#365 = AXIS2_PLACEMENT_3D ( 'NONE', #478, #748, #752 ) ;
#366 = COLOUR_RGB ( '',0.1098039215686274495, 0.1098039215686274495, 0.1098039215686274495 ) ;
#367 = VECTOR ( 'NONE', #570, 1000.000000000000000 ) ;
#368 = VECTOR ( 'NONE', #374, 1000.000000000000000 ) ;
#369 = DIRECTION ( 'NONE',  ( -1.000000000000000000, 0.000000000000000000, 0.000000000000000000 ) ) ;
#370 =( NAMED_UNIT ( * ) PLANE_ANGLE_UNIT ( ) SI_UNIT ( $, .RADIAN. ) );
#371 = CARTESIAN_POINT ( 'NONE',  ( -3.279999999999999805, 0.000000000000000000, -3.129999999999999005 ) ) ;
#372 = FACE_OUTER_BOUND ( 'NONE', #221, .T. ) ;
#373 = FILL_AREA_STYLE ('',( #727 ) ) ;
#374 = DIRECTION ( 'NONE',  ( 1.000000000000000000, 0.000000000000000000, -0.000000000000000000 ) ) ;
#375 = ADVANCED_FACE ( 'NONE', ( #664 ), #883, .F. ) ;
#376 = VERTEX_POINT ( 'NONE', #482 ) ;
#377 =( LENGTH_UNIT ( ) NAMED_UNIT ( * ) SI_UNIT ( .MILLI., .METRE. ) );
#378 = FILL_AREA_STYLE ('',( #581 ) ) ;
#379 = PRESENTATION_STYLE_ASSIGNMENT (( #513 ) ) ;
#380 = ADVANCED_FACE ( 'NONE', ( #109 ), #600, .F. ) ;
#381 = ORIENTED_EDGE ( 'NONE', *, *, #673, .F. ) ;
#382 = VECTOR ( 'NONE', #586, 1000.000000000000000 ) ;
#383 = COLOUR_RGB ( '',0.1882352941176470562, 0.2039215686274509776, 0.2039215686274509776 ) ;
#384 = DIRECTION ( 'NONE',  ( 0.000000000000000000, 0.000000000000000000, -1.000000000000000000 ) ) ;
#385 = VECTOR ( 'NONE', #772, 1000.000000000000000 ) ;
#386 = LINE ( 'NONE', #665, #118 ) ;
#387 = DIRECTION ( 'NONE',  ( 0.000000000000000000, 1.000000000000000000, 0.000000000000000000 ) ) ;
#388 = EDGE_LOOP ( 'NONE', ( #874, #23, #18, #884 ) ) ;
#389 = EDGE_CURVE ( 'NONE', #615, #114, #822, .T. ) ;
#390 = DIRECTION ( 'NONE',  ( -0.000000000000000000, 1.000000000000000000, 0.000000000000000000 ) ) ;
#391 = CARTESIAN_POINT ( 'NONE',  ( -1.394999999999999574, -0.1000000000000000056, 2.500000000000000000 ) ) ;
#392 = EDGE_LOOP ( 'NONE', ( #599, #318, #298, #724 ) ) ;
#393 =( NAMED_UNIT ( * ) SI_UNIT ( $, .STERADIAN. ) SOLID_ANGLE_UNIT ( ) );
#394 =( NAMED_UNIT ( * ) PLANE_ANGLE_UNIT ( ) SI_UNIT ( $, .RADIAN. ) );
#395 =( NAMED_UNIT ( * ) PLANE_ANGLE_UNIT ( ) SI_UNIT ( $, .RADIAN. ) );
#396 = ORIENTED_EDGE ( 'NONE', *, *, #575, .T. ) ;
#397 = COLOUR_RGB ( '',0.8274509803921568096, 0.8392156862745098200, 0.8274509803921568096 ) ;
#398 = FILL_AREA_STYLE_COLOUR ( '', #8 ) ;
#399 = VECTOR ( 'NONE', #130, 1000.000000000000000 ) ;
#400 = DIRECTION ( 'NONE',  ( 1.000000000000000000, 0.000000000000000000, -0.000000000000000000 ) ) ;
#401 = PRESENTATION_LAYER_ASSIGNMENT (  '', '', ( #154 ) ) ;
#402 = SURFACE_STYLE_FILL_AREA ( #739 ) ;
#403 =( GEOMETRIC_REPRESENTATION_CONTEXT ( 3 ) GLOBAL_UNCERTAINTY_ASSIGNED_CONTEXT ( ( #910 ) ) GLOBAL_UNIT_ASSIGNED_CONTEXT ( ( #248, #395, #263 ) ) REPRESENTATION_CONTEXT ( 'NONE', 'WORKASPACE' ) );
#404 = CYLINDRICAL_SURFACE ( 'NONE', #786, 0.2500000000000002220 ) ;
#405 = EDGE_LOOP ( 'NONE', ( #162, #274, #582, #520 ) ) ;
#406 = PLANE ( 'NONE',  #857 ) ;
#407 = FILL_AREA_STYLE_COLOUR ( '', #475 ) ;
#408 = CYLINDRICAL_SURFACE ( 'NONE', #734, 0.2500000000000002220 ) ;
#409 = PRESENTATION_STYLE_ASSIGNMENT (( #881 ) ) ;
#410 = EDGE_CURVE ( 'NONE', #879, #60, #622, .T. ) ;
#411 = DIRECTION ( 'NONE',  ( 1.283079494065685941E-16, 0.000000000000000000, 1.000000000000000000 ) ) ;
#412 = LINE ( 'NONE', #626, #399 ) ;
#413 = PRESENTATION_STYLE_ASSIGNMENT (( #332 ) ) ;
#414 = SURFACE_SIDE_STYLE ('',( #402 ) ) ;
#415 = CARTESIAN_POINT ( 'NONE',  ( 1.394999999999999352, 0.000000000000000000, 3.380000000000000338 ) ) ;
#416 = COLOUR_RGB ( '',0.8274509803921568096, 0.8392156862745098200, 0.8274509803921568096 ) ;
#417 =( NAMED_UNIT ( * ) PLANE_ANGLE_UNIT ( ) SI_UNIT ( $, .RADIAN. ) );
#418 = FILL_AREA_STYLE_COLOUR ( '', #816 ) ;
#419 = ORIENTED_EDGE ( 'NONE', *, *, #673, .T. ) ;
#420 = AXIS2_PLACEMENT_3D ( 'NONE', #713, #271, #766 ) ;
#421 = LINE ( 'NONE', #573, #616 ) ;
#422 = CARTESIAN_POINT ( 'NONE',  ( 3.280000000000001137, 0.000000000000000000, 3.195449846949786732 ) ) ;
#423 = ORIENTED_EDGE ( 'NONE', *, *, #691, .F. ) ;
#424 = DIRECTION ( 'NONE',  ( -1.000000000000000000, 0.000000000000000000, -0.000000000000000000 ) ) ;
#425 = SURFACE_SIDE_STYLE ('',( #623 ) ) ;
#426 = SURFACE_STYLE_FILL_AREA ( #694 ) ;
#427 = CARTESIAN_POINT ( 'NONE',  ( 3.029999999999999805, 6.198999999999999844, -3.379999999999999449 ) ) ;
#428 = CARTESIAN_POINT ( 'NONE',  ( 3.279999999999999805, 6.000000000000000000, -3.129999999999999005 ) ) ;
#429 = PRESENTATION_LAYER_ASSIGNMENT (  '', '', ( #136 ) ) ;
#430 = CARTESIAN_POINT ( 'NONE',  ( -3.029999999999998916, 0.000000000000000000, 3.380000000000000338 ) ) ;
#431 = MECHANICAL_DESIGN_GEOMETRIC_PRESENTATION_REPRESENTATION (  '', ( #647 ), #618 ) ;
#432 =( GEOMETRIC_REPRESENTATION_CONTEXT ( 3 ) GLOBAL_UNCERTAINTY_ASSIGNED_CONTEXT ( ( #862 ) ) GLOBAL_UNIT_ASSIGNED_CONTEXT ( ( #458, #614, #22 ) ) REPRESENTATION_CONTEXT ( 'NONE', 'WORKASPACE' ) );
#433 = COLOUR_RGB ( '',0.8274509803921568096, 0.8392156862745098200, 0.8274509803921568096 ) ;
#434 = LINE ( 'NONE', #507, #291 ) ;
#435 = SURFACE_STYLE_USAGE ( .BOTH. , #145 ) ;
#436 = CARTESIAN_POINT ( 'NONE',  ( 3.279999999999999805, 6.000000000000000000, -3.379999999999999449 ) ) ;
#437 = ORIENTED_EDGE ( 'NONE', *, *, #70, .F. ) ;
#438 = DIRECTION ( 'NONE',  ( 0.000000000000000000, 0.000000000000000000, 1.000000000000000000 ) ) ;
#439 = UNCERTAINTY_MEASURE_WITH_UNIT (LENGTH_MEASURE( 1.000000000000000082E-05 ), #611, 'distance_accuracy_value', 'NONE');
#440 = SURFACE_STYLE_FILL_AREA ( #378 ) ;
#441 = CARTESIAN_POINT ( 'NONE',  ( 2.644999999999999130, -0.1000000000000000056, -2.500000000000000444 ) ) ;
#442 = DIRECTION ( 'NONE',  ( 0.000000000000000000, 0.000000000000000000, 1.000000000000000000 ) ) ;
#443 = VECTOR ( 'NONE', #347, 1000.000000000000000 ) ;
#444 = ORIENTED_EDGE ( 'NONE', *, *, #562, .T. ) ;
#445 = AXIS2_PLACEMENT_3D ( 'NONE', #157, #88, #384 ) ;
#446 =( GEOMETRIC_REPRESENTATION_CONTEXT ( 3 ) GLOBAL_UNCERTAINTY_ASSIGNED_CONTEXT ( ( #780 ) ) GLOBAL_UNIT_ASSIGNED_CONTEXT ( ( #128, #834, #364 ) ) REPRESENTATION_CONTEXT ( 'NONE', 'WORKASPACE' ) );
#447 = ADVANCED_FACE ( 'NONE', ( #755 ), #202, .F. ) ;
#448 =( LENGTH_UNIT ( ) NAMED_UNIT ( * ) SI_UNIT ( .MILLI., .METRE. ) );
#449 =( NAMED_UNIT ( * ) PLANE_ANGLE_UNIT ( ) SI_UNIT ( $, .RADIAN. ) );
#450 = PRODUCT_DEFINITION ( 'UNKNOWN', '', #339, #228 ) ;
#451 = CARTESIAN_POINT ( 'NONE',  ( -1.394999999999999574, 0.000000000000000000, 2.500000000000000000 ) ) ;
#452 = ORIENTED_EDGE ( 'NONE', *, *, #112, .F. ) ;
#453 = UNCERTAINTY_MEASURE_WITH_UNIT (LENGTH_MEASURE( 1.000000000000000082E-05 ), #25, 'distance_accuracy_value', 'NONE');
#454 =( LENGTH_UNIT ( ) NAMED_UNIT ( * ) SI_UNIT ( .MILLI., .METRE. ) );
#455 = B_SPLINE_CURVE_WITH_KNOTS ( 'NONE', 3,
 ( #620, #113, #266, #809, #812, #343 ),
 .UNSPECIFIED., .F., .F.,
 ( 4, 2, 4 ),
 ( 0.000000000000000000, 0.5000000000000000000, 1.000000000000000000 ),
 .UNSPECIFIED. ) ;
#456 =( LENGTH_UNIT ( ) NAMED_UNIT ( * ) SI_UNIT ( .MILLI., .METRE. ) );
#457 = ORIENTED_EDGE ( 'NONE', *, *, #893, .F. ) ;
#458 =( LENGTH_UNIT ( ) NAMED_UNIT ( * ) SI_UNIT ( .MILLI., .METRE. ) );
#459 = DIRECTION ( 'NONE',  ( 1.000000000000000000, 0.000000000000000000, -0.000000000000000000 ) ) ;
#460 = DIRECTION ( 'NONE',  ( -1.283079494065685941E-16, 0.000000000000000000, -1.000000000000000000 ) ) ;
#461 = EDGE_CURVE ( 'NONE', #470, #791, #412, .T. ) ;
#462 = ORIENTED_EDGE ( 'NONE', *, *, #698, .T. ) ;
#463 = STYLED_ITEM ( 'NONE', ( #276 ), #447 ) ;
#464 = PRESENTATION_STYLE_ASSIGNMENT (( #682 ) ) ;
#465 = FILL_AREA_STYLE_COLOUR ( '', #839 ) ;
#466 =( NAMED_UNIT ( * ) SI_UNIT ( $, .STERADIAN. ) SOLID_ANGLE_UNIT ( ) );
#467 = ORIENTED_EDGE ( 'NONE', *, *, #122, .T. ) ;
#468 = SURFACE_STYLE_FILL_AREA ( #19 ) ;
#469 = DIRECTION ( 'NONE',  ( 0.000000000000000000, -1.000000000000000000, 0.000000000000000000 ) ) ;
#470 = VERTEX_POINT ( 'NONE', #427 ) ;
#471 = SURFACE_SIDE_STYLE ('',( #185 ) ) ;
#472 = CARTESIAN_POINT ( 'NONE',  ( -3.279999999999999805, 6.198999999999999844, -3.129999999999999005 ) ) ;
#473 = CARTESIAN_POINT ( 'NONE',  ( -2.644999999999999130, -0.1000000000000000056, 2.500000000000000000 ) ) ;
#474 = ORIENTED_EDGE ( 'NONE', *, *, #27, .T. ) ;
#475 = COLOUR_RGB ( '',0.1882352941176470562, 0.2039215686274509776, 0.2039215686274509776 ) ;
#476 = FACE_OUTER_BOUND ( 'NONE', #794, .T. ) ;
#477 = PRESENTATION_LAYER_ASSIGNMENT (  '', '', ( #896 ) ) ;
#478 = CARTESIAN_POINT ( 'NONE',  ( 2.644999999999999130, -0.1000000000000000056, -2.500000000000000444 ) ) ;
#479 = VECTOR ( 'NONE', #574, 1000.000000000000000 ) ;
#480 =( NAMED_UNIT ( * ) SI_UNIT ( $, .STERADIAN. ) SOLID_ANGLE_UNIT ( ) );
#481 = SURFACE_SIDE_STYLE ('',( #426 ) ) ;
#482 = CARTESIAN_POINT ( 'NONE',  ( 2.644999999999999130, -0.1000000000000000056, 2.500000000000000444 ) ) ;
#483 = FACE_OUTER_BOUND ( 'NONE', #259, .T. ) ;
#484 = DIRECTION ( 'NONE',  ( 0.000000000000000000, -1.000000000000000000, 0.000000000000000000 ) ) ;
#485 = ORIENTED_EDGE ( 'NONE', *, *, #315, .T. ) ;
#486 = PRESENTATION_STYLE_ASSIGNMENT (( #45 ) ) ;
#487 = PRODUCT_CONTEXT ( 'NONE', #32, 'mechanical' ) ;
#488 = FILL_AREA_STYLE_COLOUR ( '', #10 ) ;
#489 = CARTESIAN_POINT ( 'NONE',  ( -3.029999999999998916, 0.000000000000000000, 3.380000000000000338 ) ) ;
#490 = EDGE_CURVE ( 'NONE', #279, #621, #701, .T. ) ;
#491 =( LENGTH_UNIT ( ) NAMED_UNIT ( * ) SI_UNIT ( .MILLI., .METRE. ) );
#492 = PRESENTATION_LAYER_ASSIGNMENT (  '', '', ( #519 ) ) ;
#493 = MECHANICAL_DESIGN_GEOMETRIC_PRESENTATION_REPRESENTATION (  '', ( #634 ), #538 ) ;
#494 = CARTESIAN_POINT ( 'NONE',  ( 1.394999999999999352, -0.1000000000000000056, 2.500000000000000444 ) ) ;
#495 = EDGE_CURVE ( 'NONE', #791, #172, #434, .T. ) ;
#496 = CARTESIAN_POINT ( 'NONE',  ( 3.030000000000000693, 0.000000000000000000, 3.380000000000000338 ) ) ;
#497 = LINE ( 'NONE', #767, #117 ) ;
#498 = FILL_AREA_STYLE ('',( #187 ) ) ;
#499 = CARTESIAN_POINT ( 'NONE',  ( 1.394999999999999352, -0.1000000000000000056, 2.500000000000000444 ) ) ;
#500 = ORIENTED_EDGE ( 'NONE', *, *, #262, .F. ) ;
#501 = DIRECTION ( 'NONE',  ( -1.000000000000000000, 0.000000000000000000, 0.000000000000000000 ) ) ;
#502 = PRESENTATION_STYLE_ASSIGNMENT (( #708 ) ) ;
#503 = CARTESIAN_POINT ( 'NONE',  ( 3.280000000000000693, 0.000000000000000000, 3.129999999999999005 ) ) ;
#504 =( GEOMETRIC_REPRESENTATION_CONTEXT ( 3 ) GLOBAL_UNCERTAINTY_ASSIGNED_CONTEXT ( ( #658 ) ) GLOBAL_UNIT_ASSIGNED_CONTEXT ( ( #448, #917, #512 ) ) REPRESENTATION_CONTEXT ( 'NONE', 'WORKASPACE' ) );
#505 = COLOUR_RGB ( '',0.1882352941176470562, 0.2039215686274509776, 0.2039215686274509776 ) ;
#506 = COLOUR_RGB ( '',0.1882352941176470562, 0.2039215686274509776, 0.2039215686274509776 ) ;
#507 = CARTESIAN_POINT ( 'NONE',  ( -3.029999999999999805, 6.000000000000000000, -3.379999999999999449 ) ) ;
#508 = DIRECTION ( 'NONE',  ( 0.000000000000000000, 0.000000000000000000, -1.000000000000000000 ) ) ;
#509 = LINE ( 'NONE', #499, #367 ) ;
#510 = ORIENTED_EDGE ( 'NONE', *, *, #461, .F. ) ;
#511 = DIRECTION ( 'NONE',  ( 0.000000000000000000, 1.000000000000000000, 0.000000000000000000 ) ) ;
#512 =( NAMED_UNIT ( * ) SI_UNIT ( $, .STERADIAN. ) SOLID_ANGLE_UNIT ( ) );
#513 = SURFACE_STYLE_USAGE ( .BOTH. , #67 ) ;
#514 = LINE ( 'NONE', #158, #245 ) ;
#515 = ADVANCED_FACE ( 'NONE', ( #283 ), #583, .T. ) ;
#516 = ORIENTED_EDGE ( 'NONE', *, *, #637, .T. ) ;
#517 = SURFACE_STYLE_USAGE ( .BOTH. , #226 ) ;
#518 = DIRECTION ( 'NONE',  ( 0.000000000000000000, 1.000000000000000000, 0.000000000000000000 ) ) ;
#519 = STYLED_ITEM ( 'NONE', ( #529 ), #177 ) ;
#520 = ORIENTED_EDGE ( 'NONE', *, *, #133, .T. ) ;
#521 =( GEOMETRIC_REPRESENTATION_CONTEXT ( 3 ) GLOBAL_UNCERTAINTY_ASSIGNED_CONTEXT ( ( #152 ) ) GLOBAL_UNIT_ASSIGNED_CONTEXT ( ( #563, #351, #770 ) ) REPRESENTATION_CONTEXT ( 'NONE', 'WORKASPACE' ) );
#522 = CARTESIAN_POINT ( 'NONE',  ( -3.029999999999999805, 6.198999999999999844, -3.379999999999999449 ) ) ;
#523 = ORIENTED_EDGE ( 'NONE', *, *, #206, .T. ) ;
#524 = LINE ( 'NONE', #687, #678 ) ;
#525 = UNCERTAINTY_MEASURE_WITH_UNIT (LENGTH_MEASURE( 1.000000000000000082E-05 ), #641, 'distance_accuracy_value', 'NONE');
#526 =( NAMED_UNIT ( * ) SI_UNIT ( $, .STERADIAN. ) SOLID_ANGLE_UNIT ( ) );
#527 = ORIENTED_EDGE ( 'NONE', *, *, #43, .T. ) ;
#528 = DIRECTION ( 'NONE',  ( 0.000000000000000000, -0.000000000000000000, 1.000000000000000000 ) ) ;
#529 = PRESENTATION_STYLE_ASSIGNMENT (( #36 ) ) ;
#530 = PLANE ( 'NONE',  #860 ) ;
#531 = EDGE_CURVE ( 'NONE', #791, #916, #44, .T. ) ;
#532 = VECTOR ( 'NONE', #556, 1000.000000000000000 ) ;
#533 = ORIENTED_EDGE ( 'NONE', *, *, #131, .F. ) ;
#534 = EDGE_CURVE ( 'NONE', #376, #549, #846, .T. ) ;
#535 =( GEOMETRIC_REPRESENTATION_CONTEXT ( 3 ) GLOBAL_UNCERTAINTY_ASSIGNED_CONTEXT ( ( #160 ) ) GLOBAL_UNIT_ASSIGNED_CONTEXT ( ( #597, #370, #526 ) ) REPRESENTATION_CONTEXT ( 'NONE', 'WORKASPACE' ) );
#536 = STYLED_ITEM ( 'NONE', ( #147 ), #284 ) ;
#537 = SURFACE_SIDE_STYLE ('',( #241 ) ) ;
#538 =( GEOMETRIC_REPRESENTATION_CONTEXT ( 3 ) GLOBAL_UNCERTAINTY_ASSIGNED_CONTEXT ( ( #217 ) ) GLOBAL_UNIT_ASSIGNED_CONTEXT ( ( #548, #749, #46 ) ) REPRESENTATION_CONTEXT ( 'NONE', 'WORKASPACE' ) );
#539 =( NAMED_UNIT ( * ) SI_UNIT ( $, .STERADIAN. ) SOLID_ANGLE_UNIT ( ) );
#540 = ORIENTED_EDGE ( 'NONE', *, *, #585, .T. ) ;
#541 = CARTESIAN_POINT ( 'NONE',  ( 3.280000000000000249, 0.000000000000000000, -3.195449846949785400 ) ) ;
#542 = PLANE ( 'NONE',  #270 ) ;
#543 = CARTESIAN_POINT ( 'NONE',  ( -3.029999999999998916, 6.198999999999999844, 3.380000000000000338 ) ) ;
#544 = CARTESIAN_POINT ( 'NONE',  ( 3.030000000000000693, 6.000000000000000000, 3.380000000000000338 ) ) ;
#545 = ORIENTED_EDGE ( 'NONE', *, *, #262, .T. ) ;
#546 = SURFACE_STYLE_USAGE ( .BOTH. , #471 ) ;
#547 = PLANE ( 'NONE',  #365 ) ;
#548 =( LENGTH_UNIT ( ) NAMED_UNIT ( * ) SI_UNIT ( .MILLI., .METRE. ) );
#549 = VERTEX_POINT ( 'NONE', #855 ) ;
#550 = PRESENTATION_LAYER_ASSIGNMENT (  '', '', ( #6 ) ) ;
#551 = CIRCLE ( 'NONE', #288, 0.2500000000000002220 ) ;
#552 = DIRECTION ( 'NONE',  ( 0.000000000000000000, 0.000000000000000000, -1.000000000000000000 ) ) ;
#553 = PRODUCT ( 'XAL6060-153MEC', 'XAL6060-153MEC', '', ( #487 ) ) ;
#554 = PRESENTATION_LAYER_ASSIGNMENT (  '', '', ( #634 ) ) ;
#555 = PRESENTATION_LAYER_ASSIGNMENT (  '', '', ( #123 ) ) ;
#556 = DIRECTION ( 'NONE',  ( 0.000000000000000000, 0.000000000000000000, 1.000000000000000000 ) ) ;
#557 = ADVANCED_FACE ( 'NONE', ( #83 ), #233, .F. ) ;
#558 = FILL_AREA_STYLE_COLOUR ( '', #397 ) ;
#559 = CARTESIAN_POINT ( 'NONE',  ( 0.000000000000000000, 0.000000000000000000, 0.000000000000000000 ) ) ;
#560 = CARTESIAN_POINT ( 'NONE',  ( 3.029999999999999805, 6.000000000000000000, -3.129999999999999005 ) ) ;
#561 = CARTESIAN_POINT ( 'NONE',  ( -3.279999999999998916, 0.000000000000000000, 3.129999999999999005 ) ) ;
#562 = EDGE_CURVE ( 'NONE', #854, #681, #524, .T. ) ;
#563 =( LENGTH_UNIT ( ) NAMED_UNIT ( * ) SI_UNIT ( .MILLI., .METRE. ) );
#564 = PLANE ( 'NONE',  #307 ) ;
#565 = LINE ( 'NONE', #304, #569 ) ;
#566 = CARTESIAN_POINT ( 'NONE',  ( -3.279999999999998916, 0.000000000000000000, 3.195449846949785400 ) ) ;
#567 = SURFACE_STYLE_USAGE ( .BOTH. , #425 ) ;
#568 = PRESENTATION_LAYER_ASSIGNMENT (  '', '', ( #463 ) ) ;
#569 = VECTOR ( 'NONE', #387, 1000.000000000000000 ) ;
#570 = DIRECTION ( 'NONE',  ( -0.000000000000000000, -1.000000000000000000, -0.000000000000000000 ) ) ;
#571 = CARTESIAN_POINT ( 'NONE',  ( -3.253056725902452762, -0.000000000000000000, 3.260496664690820445 ) ) ;
#572 = VECTOR ( 'NONE', #3, 1000.000000000000000 ) ;
#573 = CARTESIAN_POINT ( 'NONE',  ( -3.279999999999998916, 6.000000000000000000, 3.129999999999999005 ) ) ;
#574 = DIRECTION ( 'NONE',  ( 0.000000000000000000, -0.000000000000000000, 1.000000000000000000 ) ) ;
#575 = EDGE_CURVE ( 'NONE', #172, #882, #455, .T. ) ;
#576 = ADVANCED_FACE ( 'NONE', ( #28 ), #878, .F. ) ;
#577 = SURFACE_STYLE_FILL_AREA ( #900 ) ;
#578 = LINE ( 'NONE', #778, #619 ) ;
#579 = ORIENTED_EDGE ( 'NONE', *, *, #762, .T. ) ;
#580 = FILL_AREA_STYLE ('',( #79 ) ) ;
#581 = FILL_AREA_STYLE_COLOUR ( '', #633 ) ;
#582 = ORIENTED_EDGE ( 'NONE', *, *, #806, .T. ) ;
#583 = CYLINDRICAL_SURFACE ( 'NONE', #859, 0.2500000000000002220 ) ;
#584 = PRESENTATION_STYLE_ASSIGNMENT (( #363 ) ) ;
#585 = EDGE_CURVE ( 'NONE', #289, #279, #190, .T. ) ;
#586 = DIRECTION ( 'NONE',  ( 0.000000000000000000, 0.000000000000000000, -1.000000000000000000 ) ) ;
#587 = DIRECTION ( 'NONE',  ( -0.000000000000000000, -1.000000000000000000, 0.000000000000000000 ) ) ;
#588 = EDGE_LOOP ( 'NONE', ( #264, #141, #595, #224 ) ) ;
#589 = DIRECTION ( 'NONE',  ( -1.000000000000000000, 0.000000000000000000, -0.000000000000000000 ) ) ;
#590 = CYLINDRICAL_SURFACE ( 'NONE', #137, 0.2500000000000002220 ) ;
#591 = DIRECTION ( 'NONE',  ( -0.000000000000000000, -1.000000000000000000, -0.000000000000000000 ) ) ;
#592 = EDGE_CURVE ( 'NONE', #827, #825, #824, .T. ) ;
#593 = UNCERTAINTY_MEASURE_WITH_UNIT (LENGTH_MEASURE( 1.000000000000000082E-05 ), #292, 'distance_accuracy_value', 'NONE');
#594 = LINE ( 'NONE', #849, #368 ) ;
#595 = ORIENTED_EDGE ( 'NONE', *, *, #163, .T. ) ;
#596 = VECTOR ( 'NONE', #316, 1000.000000000000000 ) ;
#597 =( LENGTH_UNIT ( ) NAMED_UNIT ( * ) SI_UNIT ( .MILLI., .METRE. ) );
#598 = CARTESIAN_POINT ( 'NONE',  ( 3.280000000000000693, 0.000000000000000000, 3.129999999999999005 ) ) ;
#599 = ORIENTED_EDGE ( 'NONE', *, *, #654, .F. ) ;
#600 = PLANE ( 'NONE',  #840 ) ;
#601 = DIRECTION ( 'NONE',  ( 0.000000000000000000, 1.000000000000000000, 0.000000000000000000 ) ) ;
#602 = CARTESIAN_POINT ( 'NONE',  ( -2.644999999999999130, -0.1000000000000000056, -2.500000000000000000 ) ) ;
#603 = ORIENTED_EDGE ( 'NONE', *, *, #654, .T. ) ;
#604 = FILL_AREA_STYLE ('',( #669 ) ) ;
#605 =( GEOMETRIC_REPRESENTATION_CONTEXT ( 3 ) GLOBAL_UNCERTAINTY_ASSIGNED_CONTEXT ( ( #525 ) ) GLOBAL_UNIT_ASSIGNED_CONTEXT ( ( #641, #449, #919 ) ) REPRESENTATION_CONTEXT ( 'NONE', 'WORKASPACE' ) );
#606 = ORIENTED_EDGE ( 'NONE', *, *, #134, .T. ) ;
#607 = SURFACE_SIDE_STYLE ('',( #468 ) ) ;
#608 =( NAMED_UNIT ( * ) PLANE_ANGLE_UNIT ( ) SI_UNIT ( $, .RADIAN. ) );
#609 = ADVANCED_FACE ( 'NONE', ( #743 ), #404, .T. ) ;
#610 = EDGE_LOOP ( 'NONE', ( #869, #510, #744, #381 ) ) ;
#611 =( LENGTH_UNIT ( ) NAMED_UNIT ( * ) SI_UNIT ( .MILLI., .METRE. ) );
#612 = ORIENTED_EDGE ( 'NONE', *, *, #389, .T. ) ;
#613 = EDGE_CURVE ( 'NONE', #750, #879, #38, .T. ) ;
#614 =( NAMED_UNIT ( * ) PLANE_ANGLE_UNIT ( ) SI_UNIT ( $, .RADIAN. ) );
#615 = VERTEX_POINT ( 'NONE', #194 ) ;
#616 = VECTOR ( 'NONE', #139, 1000.000000000000000 ) ;
#617 = DIRECTION ( 'NONE',  ( 0.000000000000000000, 0.000000000000000000, -1.000000000000000000 ) ) ;
#618 =( GEOMETRIC_REPRESENTATION_CONTEXT ( 3 ) GLOBAL_UNCERTAINTY_ASSIGNED_CONTEXT ( ( #712 ) ) GLOBAL_UNIT_ASSIGNED_CONTEXT ( ( #454, #776, #234 ) ) REPRESENTATION_CONTEXT ( 'NONE', 'WORKASPACE' ) );
#619 = VECTOR ( 'NONE', #837, 1000.000000000000000 ) ;
#620 = CARTESIAN_POINT ( 'NONE',  ( -3.029999999999999805, 0.000000000000000000, -3.379999999999999449 ) ) ;
#621 = VERTEX_POINT ( 'NONE', #430 ) ;
#622 = LINE ( 'NONE', #630, #885 ) ;
#623 = SURFACE_STYLE_FILL_AREA ( #277 ) ;
#624 = DIRECTION ( 'NONE',  ( -0.000000000000000000, -1.000000000000000000, -0.000000000000000000 ) ) ;
#625 = ORIENTED_EDGE ( 'NONE', *, *, #585, .F. ) ;
#626 = CARTESIAN_POINT ( 'NONE',  ( 3.029999999999999805, 6.198999999999999844, -3.379999999999999449 ) ) ;
#627 = LINE ( 'NONE', #892, #227 ) ;
#628 = FACE_BOUND ( 'NONE', #392, .T. ) ;
#629 = ORIENTED_EDGE ( 'NONE', *, *, #738, .T. ) ;
#630 = CARTESIAN_POINT ( 'NONE',  ( 3.280000000000000693, 0.000000000000000000, 2.500000000000000444 ) ) ;
#631 = MECHANICAL_DESIGN_GEOMETRIC_PRESENTATION_REPRESENTATION (  '', ( #895 ), #180 ) ;
#632 =( NAMED_UNIT ( * ) SI_UNIT ( $, .STERADIAN. ) SOLID_ANGLE_UNIT ( ) );
#633 = COLOUR_RGB ( '',0.1882352941176470562, 0.2039215686274509776, 0.2039215686274509776 ) ;
#634 = STYLED_ITEM ( 'NONE', ( #409 ), #609 ) ;
#635 = EDGE_CURVE ( 'NONE', #186, #470, #718, .T. ) ;
#636 = CARTESIAN_POINT ( 'NONE',  ( 3.095449846949787975, 0.000000000000000000, 3.379999999999999893 ) ) ;
#637 = EDGE_CURVE ( 'NONE', #805, #16, #204, .T. ) ;
#638 = EDGE_CURVE ( 'NONE', #549, #102, #214, .T. ) ;
#639 = DIRECTION ( 'NONE',  ( -1.000000000000000000, -0.000000000000000000, 0.000000000000000000 ) ) ;
#640 = DIRECTION ( 'NONE',  ( 0.000000000000000000, 1.000000000000000000, -0.000000000000000000 ) ) ;
#641 =( LENGTH_UNIT ( ) NAMED_UNIT ( * ) SI_UNIT ( .MILLI., .METRE. ) );
#642 = ORIENTED_EDGE ( 'NONE', *, *, #866, .T. ) ;
#643 = EDGE_LOOP ( 'NONE', ( #53, #891, #667, #396 ) ) ;
#644 = COLOUR_RGB ( '',0.1882352941176470562, 0.2039215686274509776, 0.2039215686274509776 ) ;
#645 = CARTESIAN_POINT ( 'NONE',  ( 2.644999999999999130, -0.1000000000000000056, -2.500000000000000444 ) ) ;
#646 =( GEOMETRIC_REPRESENTATION_CONTEXT ( 3 ) GLOBAL_UNCERTAINTY_ASSIGNED_CONTEXT ( ( #439 ) ) GLOBAL_UNIT_ASSIGNED_CONTEXT ( ( #611, #394, #99 ) ) REPRESENTATION_CONTEXT ( 'NONE', 'WORKASPACE' ) );
#647 = STYLED_ITEM ( 'NONE', ( #85 ), #295 ) ;
#648 = DIRECTION ( 'NONE',  ( 0.000000000000000000, 1.000000000000000000, 0.000000000000000000 ) ) ;
#649 = STYLED_ITEM ( 'NONE', ( #182 ), #576 ) ;
#650 = MECHANICAL_DESIGN_GEOMETRIC_PRESENTATION_REPRESENTATION (  '', ( #75 ), #197 ) ;
#651 = EDGE_LOOP ( 'NONE', ( #47, #305, #78, #64 ) ) ;
#652 = DIRECTION ( 'NONE',  ( -1.000000000000000000, 0.000000000000000000, 1.283079494065685941E-16 ) ) ;
#653 = UNCERTAINTY_MEASURE_WITH_UNIT (LENGTH_MEASURE( 1.000000000000000082E-05 ), #37, 'distance_accuracy_value', 'NONE');
#654 = EDGE_CURVE ( 'NONE', #672, #750, #700, .T. ) ;
#655 = ORIENTED_EDGE ( 'NONE', *, *, #27, .F. ) ;
#656 =( NAMED_UNIT ( * ) SI_UNIT ( $, .STERADIAN. ) SOLID_ANGLE_UNIT ( ) );
#657 = DIRECTION ( 'NONE',  ( 1.000000000000000000, 0.000000000000000000, -0.000000000000000000 ) ) ;
#658 = UNCERTAINTY_MEASURE_WITH_UNIT (LENGTH_MEASURE( 1.000000000000000082E-05 ), #448, 'distance_accuracy_value', 'NONE');
#659 = SURFACE_SIDE_STYLE ('',( #440 ) ) ;
#660 = SURFACE_SIDE_STYLE ('',( #77 ) ) ;
#661 = PRESENTATION_LAYER_ASSIGNMENT (  '', '', ( #745 ) ) ;
#662 = ORIENTED_EDGE ( 'NONE', *, *, #350, .F. ) ;
#663 = MECHANICAL_DESIGN_GEOMETRIC_PRESENTATION_REPRESENTATION (  '', ( #704 ), #829 ) ;
#664 = FACE_OUTER_BOUND ( 'NONE', #267, .T. ) ;
#665 = CARTESIAN_POINT ( 'NONE',  ( -3.279999999999999805, 6.198999999999999844, -3.129999999999999005 ) ) ;
#666 = FILL_AREA_STYLE_COLOUR ( '', #433 ) ;
#667 = ORIENTED_EDGE ( 'NONE', *, *, #495, .T. ) ;
#668 = B_SPLINE_CURVE_WITH_KNOTS ( 'NONE', 3,
 ( #13, #541, #164, #747, #880, #238 ),
 .UNSPECIFIED., .F., .F.,
 ( 4, 2, 4 ),
 ( 0.000000000000000000, 0.5000000000000000000, 1.000000000000000000 ),
 .UNSPECIFIED. ) ;
#669 = FILL_AREA_STYLE_COLOUR ( '', #366 ) ;
#670 = CARTESIAN_POINT ( 'NONE',  ( -3.279999999999998916, 6.198999999999999844, 3.129999999999999005 ) ) ;
#671 = SURFACE_STYLE_USAGE ( .BOTH. , #736 ) ;
#672 = VERTEX_POINT ( 'NONE', #353 ) ;
#673 = EDGE_CURVE ( 'NONE', #172, #845, #286, .T. ) ;
#674 = FILL_AREA_STYLE ('',( #465 ) ) ;
#675 = DIRECTION ( 'NONE',  ( 0.000000000000000000, -0.000000000000000000, -1.000000000000000000 ) ) ;
#676 = ORIENTED_EDGE ( 'NONE', *, *, #206, .F. ) ;
#677 = PRESENTATION_LAYER_ASSIGNMENT (  '', '', ( #536 ) ) ;
#678 = VECTOR ( 'NONE', #820, 1000.000000000000000 ) ;
#679 = FILL_AREA_STYLE ('',( #256 ) ) ;
#680 = FILL_AREA_STYLE ('',( #488 ) ) ;
#681 = VERTEX_POINT ( 'NONE', #356 ) ;
#682 = SURFACE_STYLE_USAGE ( .BOTH. , #607 ) ;
#683 = SURFACE_STYLE_FILL_AREA ( #95 ) ;
#684 = ORIENTED_EDGE ( 'NONE', *, *, #709, .F. ) ;
#685 = DIRECTION ( 'NONE',  ( -0.000000000000000000, 0.000000000000000000, -1.000000000000000000 ) ) ;
#686 = SURFACE_SIDE_STYLE ('',( #683 ) ) ;
#687 = CARTESIAN_POINT ( 'NONE',  ( -2.644999999999999130, -0.1000000000000000056, -2.500000000000000000 ) ) ;
#688 = ORIENTED_EDGE ( 'NONE', *, *, #853, .T. ) ;
#689 = ORIENTED_EDGE ( 'NONE', *, *, #738, .F. ) ;
#690 = AXIS2_PLACEMENT_3D ( 'NONE', #80, #369, #73 ) ;
#691 = EDGE_CURVE ( 'NONE', #906, #289, #696, .T. ) ;
#692 = VECTOR ( 'NONE', #835, 1000.000000000000000 ) ;
#693 = VECTOR ( 'NONE', #868, 1000.000000000000000 ) ;
#694 = FILL_AREA_STYLE ('',( #129 ) ) ;
#695 = LINE ( 'NONE', #428, #443 ) ;
#696 = LINE ( 'NONE', #901, #167 ) ;
#697 = DIRECTION ( 'NONE',  ( -0.000000000000000000, 0.000000000000000000, -1.000000000000000000 ) ) ;
#698 = EDGE_CURVE ( 'NONE', #250, #902, #68, .T. ) ;
#699 = CARTESIAN_POINT ( 'NONE',  ( -3.279999999999999805, 6.000000000000000000, -3.379999999999999449 ) ) ;
#700 = LINE ( 'NONE', #761, #886 ) ;
#701 = LINE ( 'NONE', #281, #692 ) ;
#702 = PRESENTATION_LAYER_ASSIGNMENT (  '', '', ( #871 ) ) ;
#703 = DIRECTION ( 'NONE',  ( 0.000000000000000000, 1.000000000000000000, -0.000000000000000000 ) ) ;
#704 = STYLED_ITEM ( 'NONE', ( #486 ), #380 ) ;
#705 = CARTESIAN_POINT ( 'NONE',  ( -3.279999999999999805, 0.000000000000000000, -3.379999999999999449 ) ) ;
#706 = CIRCLE ( 'NONE', #168, 0.2500000000000002220 ) ;
#707 = CARTESIAN_POINT ( 'NONE',  ( 2.644999999999999130, -0.1000000000000000056, 2.500000000000000444 ) ) ;
#708 = SURFACE_STYLE_USAGE ( .BOTH. , #836 ) ;
#709 = EDGE_CURVE ( 'NONE', #60, #549, #509, .T. ) ;
#710 = ORIENTED_EDGE ( 'NONE', *, *, #635, .F. ) ;
#711 = SURFACE_STYLE_FILL_AREA ( #306 ) ;
#712 = UNCERTAINTY_MEASURE_WITH_UNIT (LENGTH_MEASURE( 1.000000000000000082E-05 ), #454, 'distance_accuracy_value', 'NONE');
#713 = CARTESIAN_POINT ( 'NONE',  ( 3.029999999999999805, 6.198999999999999844, -3.129999999999999005 ) ) ;
#714 = EDGE_LOOP ( 'NONE', ( #533, #331, #612, #642 ) ) ;
#715 = COLOUR_RGB ( '',1.000000000000000000, 1.000000000000000000, 1.000000000000000000 ) ;
#716 = DIRECTION ( 'NONE',  ( 0.000000000000000000, 0.000000000000000000, 1.000000000000000000 ) ) ;
#717 = PRESENTATION_STYLE_ASSIGNMENT (( #852 ) ) ;
#718 = CIRCLE ( 'NONE', #420, 0.2500000000000002220 ) ;
#719 = PRESENTATION_LAYER_ASSIGNMENT (  '', '', ( #11 ) ) ;
#720 = ORIENTED_EDGE ( 'NONE', *, *, #70, .T. ) ;
#721 = UNCERTAINTY_MEASURE_WITH_UNIT (LENGTH_MEASURE( 1.000000000000000082E-05 ), #244, 'distance_accuracy_value', 'NONE');
#722 = ORIENTED_EDGE ( 'NONE', *, *, #315, .F. ) ;
#723 = EDGE_CURVE ( 'NONE', #827, #902, #578, .T. ) ;
#724 = ORIENTED_EDGE ( 'NONE', *, *, #613, .F. ) ;
#725 = DIRECTION ( 'NONE',  ( 0.000000000000000000, 1.000000000000000000, 0.000000000000000000 ) ) ;
#726 = SURFACE_STYLE_USAGE ( .BOTH. , #7 ) ;
#727 = FILL_AREA_STYLE_COLOUR ( '', #715 ) ;
#728 = CARTESIAN_POINT ( 'NONE',  ( 3.029999999999999805, 0.000000000000000000, -3.379999999999999449 ) ) ;
#729 = MECHANICAL_DESIGN_GEOMETRIC_PRESENTATION_REPRESENTATION (  '', ( #871 ), #605 ) ;
#730 = PRESENTATION_LAYER_ASSIGNMENT (  '', '', ( #895 ) ) ;
#731 = ORIENTED_EDGE ( 'NONE', *, *, #787, .T. ) ;
#732 = PRESENTATION_LAYER_ASSIGNMENT (  '', '', ( #704 ) ) ;
#733 = STYLED_ITEM ( 'NONE', ( #826 ), #758 ) ;
#734 = AXIS2_PLACEMENT_3D ( 'NONE', #26, #329, #323 ) ;
#735 = CARTESIAN_POINT ( 'NONE',  ( -3.029999999999999805, 0.000000000000000000, -3.379999999999999449 ) ) ;
#736 = SURFACE_SIDE_STYLE ('',( #166 ) ) ;
#737 = ORIENTED_EDGE ( 'NONE', *, *, #112, .T. ) ;
#738 = EDGE_CURVE ( 'NONE', #279, #805, #253, .T. ) ;
#739 = FILL_AREA_STYLE ('',( #106 ) ) ;
#740 = ORIENTED_EDGE ( 'NONE', *, *, #698, .F. ) ;
#741 = FACE_OUTER_BOUND ( 'NONE', #91, .T. ) ;
#742 = PRESENTATION_STYLE_ASSIGNMENT (( #671 ) ) ;
#743 = FACE_OUTER_BOUND ( 'NONE', #97, .T. ) ;
#744 = ORIENTED_EDGE ( 'NONE', *, *, #134, .F. ) ;
#745 = STYLED_ITEM ( 'NONE', ( #502 ), #280 ) ;
#746 = MECHANICAL_DESIGN_GEOMETRIC_PRESENTATION_REPRESENTATION (  '', ( #211 ), #195 ) ;
#747 = CARTESIAN_POINT ( 'NONE',  ( 3.160496664690819912, -0.000000000000000000, -3.353056725902451518 ) ) ;
#748 = DIRECTION ( 'NONE',  ( 0.000000000000000000, 0.000000000000000000, 1.000000000000000000 ) ) ;
#749 =( NAMED_UNIT ( * ) PLANE_ANGLE_UNIT ( ) SI_UNIT ( $, .RADIAN. ) );
#750 = VERTEX_POINT ( 'NONE', #348 ) ;
#751 = CARTESIAN_POINT ( 'NONE',  ( -3.279999999999999805, 6.000000000000000000, -3.129999999999999005 ) ) ;
#752 = DIRECTION ( 'NONE',  ( 1.000000000000000000, 0.000000000000000000, -0.000000000000000000 ) ) ;
#753 = DIRECTION ( 'NONE',  ( 0.000000000000000000, 0.000000000000000000, -1.000000000000000000 ) ) ;
#754 = ORIENTED_EDGE ( 'NONE', *, *, #531, .T. ) ;
#755 = FACE_OUTER_BOUND ( 'NONE', #246, .T. ) ;
#756 = APPLICATION_PROTOCOL_DEFINITION ( 'draft international standard', 'automotive_design', 1998, #232 ) ;
#757 = LINE ( 'NONE', #272, #907 ) ;
#758 = ADVANCED_FACE ( 'NONE', ( #628, #140, #63 ), #843, .F. ) ;
#759 = VECTOR ( 'NONE', #52, 1000.000000000000000 ) ;
#760 = MECHANICAL_DESIGN_GEOMETRIC_PRESENTATION_REPRESENTATION (  '', ( #123 ), #876 ) ;
#761 = CARTESIAN_POINT ( 'NONE',  ( 3.280000000000000693, 0.000000000000000000, -2.500000000000000444 ) ) ;
#762 = EDGE_CURVE ( 'NONE', #621, #906, #565, .T. ) ;
#763 =( NAMED_UNIT ( * ) SI_UNIT ( $, .STERADIAN. ) SOLID_ANGLE_UNIT ( ) );
#764 = FILL_AREA_STYLE_COLOUR ( '', #814 ) ;
#765 = EDGE_CURVE ( 'NONE', #750, #30, #514, .T. ) ;
#766 = DIRECTION ( 'NONE',  ( 0.000000000000000000, 0.000000000000000000, 1.000000000000000000 ) ) ;
#767 = CARTESIAN_POINT ( 'NONE',  ( 3.279999999999999805, 0.000000000000000000, -3.379999999999999449 ) ) ;
#768 = CARTESIAN_POINT ( 'NONE',  ( -1.394999999999999352, -0.1000000000000000056, 2.500000000000000000 ) ) ;
#769 = FILL_AREA_STYLE_COLOUR ( '', #505 ) ;
#770 =( NAMED_UNIT ( * ) SI_UNIT ( $, .STERADIAN. ) SOLID_ANGLE_UNIT ( ) );
#771 = PRESENTATION_LAYER_ASSIGNMENT (  '', '', ( #257 ) ) ;
#772 = DIRECTION ( 'NONE',  ( 0.000000000000000000, 0.000000000000000000, -1.000000000000000000 ) ) ;
#773 = AXIS2_PLACEMENT_3D ( 'NONE', #559, #823, #189 ) ;
#774 = ORIENTED_EDGE ( 'NONE', *, *, #490, .F. ) ;
#775 = SURFACE_SIDE_STYLE ('',( #1 ) ) ;
#776 =( NAMED_UNIT ( * ) PLANE_ANGLE_UNIT ( ) SI_UNIT ( $, .RADIAN. ) );
#777 = CARTESIAN_POINT ( 'NONE',  ( -3.279999999999999805, 6.000000000000000000, -3.379999999999999449 ) ) ;
#778 = CARTESIAN_POINT ( 'NONE',  ( -1.394999999999999352, -0.1000000000000000056, 2.500000000000000000 ) ) ;
#779 = DIRECTION ( 'NONE',  ( 0.000000000000000000, -1.000000000000000000, -0.000000000000000000 ) ) ;
#780 = UNCERTAINTY_MEASURE_WITH_UNIT (LENGTH_MEASURE( 1.000000000000000082E-05 ), #128, 'distance_accuracy_value', 'NONE');
#781 = FACE_OUTER_BOUND ( 'NONE', #588, .T. ) ;
#782 = ORIENTED_EDGE ( 'NONE', *, *, #691, .T. ) ;
#783 = AXIS2_PLACEMENT_3D ( 'NONE', #699, #898, #62 ) ;
#784 = PRESENTATION_LAYER_ASSIGNMENT (  '', '', ( #211 ) ) ;
#785 = LINE ( 'NONE', #155, #572 ) ;
#786 = AXIS2_PLACEMENT_3D ( 'NONE', #560, #484, #753 ) ;
#787 = EDGE_CURVE ( 'NONE', #799, #882, #297, .T. ) ;
#788 = UNCERTAINTY_MEASURE_WITH_UNIT (LENGTH_MEASURE( 1.000000000000000082E-05 ), #252, 'distance_accuracy_value', 'NONE');
#789 = ADVANCED_FACE ( 'NONE', ( #781 ), #858, .F. ) ;
#790 = FILL_AREA_STYLE_COLOUR ( '', #844 ) ;
#791 = VERTEX_POINT ( 'NONE', #522 ) ;
#792 = SURFACE_STYLE_USAGE ( .BOTH. , #336 ) ;
#793 = CARTESIAN_POINT ( 'NONE',  ( -3.279999999999999805, 0.000000000000000000, -3.379999999999999449 ) ) ;
#794 = EDGE_LOOP ( 'NONE', ( #688, #782, #467, #485, #209, #810, #754, #737 ) ) ;
#795 = DIRECTION ( 'NONE',  ( -1.385561881770612928E-16, 0.000000000000000000, -1.000000000000000000 ) ) ;
#796 = VECTOR ( 'NONE', #697, 1000.000000000000000 ) ;
#797 = FILL_AREA_STYLE ('',( #790 ) ) ;
#798 = VECTOR ( 'NONE', #716, 1000.000000000000000 ) ;
#799 = VERTEX_POINT ( 'NONE', #310 ) ;
#800 = COLOUR_RGB ( '',0.1882352941176470562, 0.2039215686274509776, 0.2039215686274509776 ) ;
#801 = AXIS2_PLACEMENT_3D ( 'NONE', #200, #648, #915 ) ;
#802 = CARTESIAN_POINT ( 'NONE',  ( -3.029999999999998916, 6.198999999999999844, 3.129999999999999893 ) ) ;
#803 = SURFACE_SIDE_STYLE ('',( #328 ) ) ;
#804 =( NAMED_UNIT ( * ) PLANE_ANGLE_UNIT ( ) SI_UNIT ( $, .RADIAN. ) );
#805 = VERTEX_POINT ( 'NONE', #598 ) ;
#806 = EDGE_CURVE ( 'NONE', #102, #30, #594, .T. ) ;
#807 =( NAMED_UNIT ( * ) PLANE_ANGLE_UNIT ( ) SI_UNIT ( $, .RADIAN. ) );
#808 = CARTESIAN_POINT ( 'NONE',  ( 2.644999999999999130, -0.1000000000000000056, 2.500000000000000444 ) ) ;
#809 = CARTESIAN_POINT ( 'NONE',  ( -3.253056725902453206, -0.000000000000000000, -3.260496664690820001 ) ) ;
#810 = ORIENTED_EDGE ( 'NONE', *, *, #461, .T. ) ;
#811 = SURFACE_STYLE_FILL_AREA ( #674 ) ;
#812 = CARTESIAN_POINT ( 'NONE',  ( -3.279999999999999805, 0.000000000000000000, -3.195449846949786732 ) ) ;
#813 = ORIENTED_EDGE ( 'NONE', *, *, #638, .F. ) ;
#814 = COLOUR_RGB ( '',0.8274509803921568096, 0.8392156862745098200, 0.8274509803921568096 ) ;
#815 = VECTOR ( 'NONE', #795, 1000.000000000000000 ) ;
#816 = COLOUR_RGB ( '',0.8274509803921568096, 0.8392156862745098200, 0.8274509803921568096 ) ;
#817 = DIRECTION ( 'NONE',  ( -1.000000000000000000, 0.000000000000000000, -0.000000000000000000 ) ) ;
#818 = VECTOR ( 'NONE', #591, 1000.000000000000000 ) ;
#819 = APPLICATION_PROTOCOL_DEFINITION ( 'draft international standard', 'automotive_design', 1998, #32 ) ;
#820 = DIRECTION ( 'NONE',  ( 1.000000000000000000, 0.000000000000000000, -0.000000000000000000 ) ) ;
#821 = VERTEX_POINT ( 'NONE', #236 ) ;
#822 = LINE ( 'NONE', #268, #911 ) ;
#823 = DIRECTION ( 'NONE',  ( 0.000000000000000000, 0.000000000000000000, 1.000000000000000000 ) ) ;
#824 = LINE ( 'NONE', #473, #273 ) ;
#825 = VERTEX_POINT ( 'NONE', #302 ) ;
#826 = PRESENTATION_STYLE_ASSIGNMENT (( #435 ) ) ;
#827 = VERTEX_POINT ( 'NONE', #391 ) ;
#828 = VECTOR ( 'NONE', #639, 1000.000000000000000 ) ;
#829 =( GEOMETRIC_REPRESENTATION_CONTEXT ( 3 ) GLOBAL_UNCERTAINTY_ASSIGNED_CONTEXT ( ( #2 ) ) GLOBAL_UNIT_ASSIGNED_CONTEXT ( ( #491, #341, #763 ) ) REPRESENTATION_CONTEXT ( 'NONE', 'WORKASPACE' ) );
#830 = SURFACE_STYLE_FILL_AREA ( #498 ) ;
#831 = MECHANICAL_DESIGN_GEOMETRIC_PRESENTATION_REPRESENTATION (  '', ( #733 ), #446 ) ;
#832 = CARTESIAN_POINT ( 'NONE',  ( 3.160496664690822577, -0.000000000000000000, 3.353056725902454183 ) ) ;
#833 = CARTESIAN_POINT ( 'NONE',  ( -3.160496664690819912, -0.000000000000000000, 3.353056725902452850 ) ) ;
#834 =( NAMED_UNIT ( * ) PLANE_ANGLE_UNIT ( ) SI_UNIT ( $, .RADIAN. ) );
#835 = DIRECTION ( 'NONE',  ( -1.000000000000000000, 0.000000000000000000, -0.000000000000000000 ) ) ;
#836 = SURFACE_SIDE_STYLE ('',( #577 ) ) ;
#837 = DIRECTION ( 'NONE',  ( 0.000000000000000000, 1.000000000000000000, -0.000000000000000000 ) ) ;
#838 = EDGE_LOOP ( 'NONE', ( #625, #423, #303, #774 ) ) ;
#839 = COLOUR_RGB ( '',0.8274509803921568096, 0.8392156862745098200, 0.8274509803921568096 ) ;
#840 = AXIS2_PLACEMENT_3D ( 'NONE', #345, #617, #424 ) ;
#841 = EDGE_CURVE ( 'NONE', #615, #825, #220, .T. ) ;
#842 = PRESENTATION_LAYER_ASSIGNMENT (  '', '', ( #213 ) ) ;
#843 = PLANE ( 'NONE',  #801 ) ;
#844 = COLOUR_RGB ( '',0.8274509803921568096, 0.8392156862745098200, 0.8274509803921568096 ) ;
#845 = VERTEX_POINT ( 'NONE', #728 ) ;
#846 = LINE ( 'NONE', #707, #121 ) ;
#847 = DIRECTION ( 'NONE',  ( 0.000000000000000000, -1.000000000000000000, 0.000000000000000000 ) ) ;
#848 = LINE ( 'NONE', #441, #798 ) ;
#849 = CARTESIAN_POINT ( 'NONE',  ( 2.644999999999999130, -0.1000000000000000056, -2.500000000000000444 ) ) ;
#850 = UNCERTAINTY_MEASURE_WITH_UNIT (LENGTH_MEASURE( 1.000000000000000082E-05 ), #456, 'distance_accuracy_value', 'NONE');
#851 = SURFACE_STYLE_FILL_AREA ( #218 ) ;
#852 = SURFACE_STYLE_USAGE ( .BOTH. , #660 ) ;
#853 = EDGE_CURVE ( 'NONE', #149, #906, #706, .T. ) ;
#854 = VERTEX_POINT ( 'NONE', #15 ) ;
#855 = CARTESIAN_POINT ( 'NONE',  ( 1.394999999999999352, -0.1000000000000000056, 2.500000000000000444 ) ) ;
#856 = MECHANICAL_DESIGN_GEOMETRIC_PRESENTATION_REPRESENTATION (  '', ( #136 ), #210 ) ;
#857 = AXIS2_PLACEMENT_3D ( 'NONE', #802, #170, #528 ) ;
#858 = PLANE ( 'NONE',  #309 ) ;
#859 = AXIS2_PLACEMENT_3D ( 'NONE', #212, #142, #156 ) ;
#860 = AXIS2_PLACEMENT_3D ( 'NONE', #171, #469, #675 ) ;
#861 = ORIENTED_EDGE ( 'NONE', *, *, #806, .F. ) ;
#862 = UNCERTAINTY_MEASURE_WITH_UNIT (LENGTH_MEASURE( 1.000000000000000082E-05 ), #458, 'distance_accuracy_value', 'NONE');
#863 = CARTESIAN_POINT ( 'NONE',  ( 3.030000000000000693, 6.198999999999999844, 3.380000000000000338 ) ) ;
#864 = CARTESIAN_POINT ( 'NONE',  ( 3.030000000000000693, 6.198999999999999844, 3.129999999999999893 ) ) ;
#865 = EDGE_LOOP ( 'NONE', ( #444, #527, #12, #231 ) ) ;
#866 = EDGE_CURVE ( 'NONE', #114, #854, #313, .T. ) ;
#867 = DIRECTION ( 'NONE',  ( 0.000000000000000000, 0.000000000000000000, 1.000000000000000000 ) ) ;
#868 = DIRECTION ( 'NONE',  ( 0.000000000000000000, -1.000000000000000000, -0.000000000000000000 ) ) ;
#869 = ORIENTED_EDGE ( 'NONE', *, *, #495, .F. ) ;
#870 = FILL_AREA_STYLE ('',( #17 ) ) ;
#871 = STYLED_ITEM ( 'NONE', ( #584 ), #92 ) ;
#872 = DIRECTION ( 'NONE',  ( 0.000000000000000000, 0.000000000000000000, -1.000000000000000000 ) ) ;
#873 = MECHANICAL_DESIGN_GEOMETRIC_PRESENTATION_REPRESENTATION (  '', ( #536 ), #504 ) ;
#874 = ORIENTED_EDGE ( 'NONE', *, *, #133, .F. ) ;
#875 = MECHANICAL_DESIGN_GEOMETRIC_PRESENTATION_REPRESENTATION (  '', ( #649 ), #432 ) ;
#876 =( GEOMETRIC_REPRESENTATION_CONTEXT ( 3 ) GLOBAL_UNCERTAINTY_ASSIGNED_CONTEXT ( ( #721 ) ) GLOBAL_UNIT_ASSIGNED_CONTEXT ( ( #244, #804, #480 ) ) REPRESENTATION_CONTEXT ( 'NONE', 'WORKASPACE' ) );
#877 = PRESENTATION_STYLE_ASSIGNMENT (( #546 ) ) ;
#878 = PLANE ( 'NONE',  #196 ) ;
#879 = VERTEX_POINT ( 'NONE', #82 ) ;
#880 = CARTESIAN_POINT ( 'NONE',  ( 3.095449846949787975, 0.000000000000000000, -3.379999999999999449 ) ) ;
#881 = SURFACE_STYLE_USAGE ( .BOTH. , #96 ) ;
#882 = VERTEX_POINT ( 'NONE', #371 ) ;
#883 = PLANE ( 'NONE',  #320 ) ;
#884 = ORIENTED_EDGE ( 'NONE', *, *, #269, .F. ) ;
#885 = VECTOR ( 'NONE', #192, 1000.000000000000000 ) ;
#886 = VECTOR ( 'NONE', #278, 1000.000000000000000 ) ;
#887 = CARTESIAN_POINT ( 'NONE',  ( 3.280000000000000693, 0.000000000000000000, -2.499999999999999556 ) ) ;
#888 = SURFACE_STYLE_FILL_AREA ( #680 ) ;
#889 =( LENGTH_UNIT ( ) NAMED_UNIT ( * ) SI_UNIT ( .MILLI., .METRE. ) );
#890 = DIRECTION ( 'NONE',  ( 0.000000000000000000, -0.000000000000000000, 1.000000000000000000 ) ) ;
#891 = ORIENTED_EDGE ( 'NONE', *, *, #531, .F. ) ;
#892 = CARTESIAN_POINT ( 'NONE',  ( 2.644999999999999130, -0.1000000000000000056, 2.500000000000000444 ) ) ;
#893 = EDGE_CURVE ( 'NONE', #672, #102, #785, .T. ) ;
#894 = ORIENTED_EDGE ( 'NONE', *, *, #575, .F. ) ;
#895 = STYLED_ITEM ( 'NONE', ( #49 ), #235 ) ;
#896 = STYLED_ITEM ( 'NONE', ( #877 ), #346 ) ;
#897 = VECTOR ( 'NONE', #890, 1000.000000000000000 ) ;
#898 = DIRECTION ( 'NONE',  ( 1.000000000000000000, 0.000000000000000000, -1.283079494065685941E-16 ) ) ;
#899 = SURFACE_STYLE_FILL_AREA ( #359 ) ;
#900 = FILL_AREA_STYLE ('',( #764 ) ) ;
#901 = CARTESIAN_POINT ( 'NONE',  ( -3.029999999999998916, 6.198999999999999844, 3.380000000000000338 ) ) ;
#902 = VERTEX_POINT ( 'NONE', #451 ) ;
#903 =( NAMED_UNIT ( * ) SI_UNIT ( $, .STERADIAN. ) SOLID_ANGLE_UNIT ( ) );
#904 = ADVANCED_FACE ( 'NONE', ( #229 ), #530, .T. ) ;
#905 =( NAMED_UNIT ( * ) PLANE_ANGLE_UNIT ( ) SI_UNIT ( $, .RADIAN. ) );
#906 = VERTEX_POINT ( 'NONE', #543 ) ;
#907 = VECTOR ( 'NONE', #201, 1000.000000000000000 ) ;
#908 = SURFACE_STYLE_USAGE ( .BOTH. , #775 ) ;
#909 = VECTOR ( 'NONE', #400, 1000.000000000000000 ) ;
#910 = UNCERTAINTY_MEASURE_WITH_UNIT (LENGTH_MEASURE( 1.000000000000000082E-05 ), #248, 'distance_accuracy_value', 'NONE');
#911 = VECTOR ( 'NONE', #685, 1000.000000000000000 ) ;
#912 = FILL_AREA_STYLE_COLOUR ( '', #181 ) ;
#913 = ORIENTED_EDGE ( 'NONE', *, *, #592, .F. ) ;
#914 = COLOUR_RGB ( '',0.1882352941176470562, 0.2039215686274509776, 0.2039215686274509776 ) ;
#915 = DIRECTION ( 'NONE',  ( 0.000000000000000000, -0.000000000000000000, 1.000000000000000000 ) ) ;
#916 = VERTEX_POINT ( 'NONE', #472 ) ;
#917 =( NAMED_UNIT ( * ) PLANE_ANGLE_UNIT ( ) SI_UNIT ( $, .RADIAN. ) );
#918 = ADVANCED_FACE ( 'NONE', ( #483 ), #408, .T. ) ;
#919 =( NAMED_UNIT ( * ) SI_UNIT ( $, .STERADIAN. ) SOLID_ANGLE_UNIT ( ) );
ENDSEC;
END-ISO-10303-21;
